<?xml version="1.0" encoding="utf-8"?>
<!-- Generator: Adobe Illustrator 24.3.0, SVG Export Plug-In . SVG Version: 6.00 Build 0)  -->
<svg version="1.1" id="レイヤー_1" xmlns="http://www.w3.org/2000/svg" xmlns:xlink="http://www.w3.org/1999/xlink" x="0px"
	 y="0px" viewBox="0 0 1091 1242" style="enable-background:new 0 0 1091 1242;" xml:space="preserve">
<style type="text/css">
	.st0{fill:#4ABC6C;stroke:#000000;stroke-width:3;stroke-miterlimit:10;}
	.st1{fill:#4ABC6C;}
	.st2{fill:#F9C27A;}
	.st3{fill:#CC651F;stroke:#000000;stroke-width:5;stroke-miterlimit:10;}
	.st4{fill:none;stroke:#020202;stroke-width:10;stroke-miterlimit:10;}
	.st5{fill:#070707;stroke:#020202;stroke-width:10;stroke-miterlimit:10;}
	.st6{fill:#EA7397;}
	.st7{fill:#F44E4E;}
</style>
<g>
	<g>
		<path d="M560.97,971.1c2.64,25.78,5.27,51.56,6.98,77.42c1.69,25.62,2.48,51.32,1.43,76.98c-0.59,14.52-1.79,29.02-3.71,43.42
			c0.36-2.66,0.71-5.32,1.07-7.98c-0.13,0.97-0.26,1.95-0.4,2.92c-1.25,3.99-1.43,7.98-0.54,11.96c0.18,3.99,1.37,7.71,3.56,11.15
			c1.89,3.5,4.46,6.3,7.73,8.42c2.9,2.65,6.3,4.44,10.2,5.37c2.66,0.36,5.32,0.71,7.98,1.07c5.42-0.02,10.46-1.38,15.14-4.1
			c2.02-1.56,4.05-3.13,6.07-4.69c3.72-3.74,6.29-8.16,7.72-13.24c2.18-15.53,3.95-31.07,4.81-46.74
			c0.72-13.04,0.95-26.11,0.79-39.17c-0.31-26.3-2.13-52.56-4.5-78.75c-1.33-14.7-2.83-29.38-4.33-44.05
			c0.16-4.13-0.71-7.98-2.58-11.56c-1.21-3.72-3.28-6.94-6.2-9.65c-2.72-2.93-5.94-4.99-9.65-6.2c-3.58-1.88-7.43-2.74-11.56-2.58
			c-2.66,0.36-5.32,0.71-7.98,1.07c-5.08,1.43-9.49,4-13.24,7.72c-1.56,2.02-3.13,4.05-4.69,6.07
			C562.35,960.63,560.98,965.68,560.97,971.1L560.97,971.1z"/>
	</g>
</g>
<g>
	<g>
		<path d="M337.12,966.56c-8.53,13.01-17.56,25.68-27.06,38c1.56-2.02,3.13-4.05,4.69-6.07c-12.42,16.08-25.64,31.54-39.6,46.31
			c-13.91,14.71-28.55,28.74-43.85,42c-8.63,7.48-17.47,14.72-26.5,21.7c2.02-1.56,4.05-3.13,6.07-4.69
			c-11.31,8.74-22.93,17.08-34.82,25c-3.38,2.25-6.79,4.47-10.22,6.65c-3.5,1.89-6.3,4.46-8.42,7.73c-2.65,2.9-4.44,6.3-5.37,10.2
			c-1.25,3.99-1.43,7.98-0.54,11.96c0.18,3.99,1.37,7.71,3.56,11.15c1.56,2.02,3.13,4.05,4.69,6.07c3.74,3.72,8.16,6.29,13.24,7.72
			c2.66,0.36,5.32,0.71,7.98,1.07c5.42-0.02,10.46-1.38,15.14-4.1c14.18-9.03,27.99-18.66,41.37-28.84
			c15.32-11.65,30.28-23.71,44.6-36.58c12.5-11.24,24.54-23,36.08-35.24c11.54-12.23,22.57-24.94,33.05-38.09
			c11.99-15.03,23.53-30.44,34.24-46.42c1.17-1.75,2.33-3.5,3.48-5.26c2.19-3.44,3.38-7.16,3.56-11.15
			c0.89-3.99,0.71-7.98-0.54-11.96c-0.93-3.9-2.72-7.3-5.37-10.2c-2.12-3.27-4.92-5.84-8.42-7.73c-2.39-1.01-4.78-2.02-7.17-3.02
			c-5.32-1.43-10.63-1.43-15.95,0c-2.39,1.01-4.78,2.02-7.17,3.02C343.37,958.47,339.78,962.05,337.12,966.56L337.12,966.56z"/>
	</g>
</g>
<g>
	<path class="st0" d="M381.84,474.4c71.81,8.68,312.55,47.35,323.23,3.84c46.86,0.44,37.81-24.33,57.61,84.16
		c26.94,86.31,144.43,194.35,208.05,266.77c-33.69,29.69-70.47,55.99-108.38,79.99c-39.59-58.53-22.96-127.94-118.04-113.8
		c-23.49,32.43-13.15,175.86-23.87,225.3c-160-40.68-323.23-22.39-485.18-44.95c54.16-68.37,124.42-114.22,145.69-204.12
		c-77.18-34.58-217.24-76.08-269.17-142.91c48.64-51.96,49.74-112.21,69.04-176.5c70.54,37.05,109.85,225.84,198.49,198.38
		C377.42,591.43,373.62,533.26,381.84,474.4z"/>
</g>
<g>
	<path class="st1" d="M543.01,587.49c-71.96-0.18-139.51-19.97-190.24-55.71C302.3,496.21,274.5,449.06,274.5,399
		c0-29.85,9.7-58.41,28.84-84.89c18.33-25.36,45.15-47.89,77.56-65.16c41.72-22.22,91.34-35.35,143.51-37.96
		c6.5-0.33,13.09-0.5,19.58-0.5s13.08,0.17,19.58,0.5c58.8,2.95,113.38,18.92,157.85,46.17C779.94,293,813.5,344.7,813.5,399
		c0,49.13-26.92,95.66-75.8,131.01c-49.03,35.46-114.76,55.84-185.08,57.39c-0.3,0.01-0.58,0.02-0.87,0.02
		c-1.75,0.03-3.44,0.05-5.14,0.06c-0.33,0.01-0.62,0.01-0.92,0.01h-1.95L543.01,587.49z"/>
	<g>
		<path d="M544,213c6.45,0,13,0.17,19.46,0.49c29.36,1.48,57.93,6.28,84.91,14.29c26.15,7.76,50.3,18.36,71.76,31.51
			c27.98,17.14,50.97,38.6,66.5,62.07C802.8,345.8,811,371.92,811,399c0,48.31-26.55,94.12-74.76,128.98
			c-48.62,35.17-113.85,55.38-183.67,56.92l-0.03,0l-0.03,0c-0.25,0.01-0.5,0.02-0.75,0.02h-0.04l-0.04,0
			c-1.69,0.03-3.37,0.05-5.06,0.06l-0.04,0l-0.04,0c-0.27,0.01-0.55,0.01-0.82,0.01c-0.09,0-0.18,0-0.27,0l-0.06,0h-0.06l-0.8,0
			l-0.76,0c-0.24,0-0.48,0-0.72,0l-0.03,0l-0.03,0c-36.13-0.09-71.15-5.14-104.1-14.99c-31.76-9.5-60.25-23.05-84.68-40.26
			c-24.31-17.13-43.37-37.02-56.65-59.12C283.92,447.9,277,423.81,277,399c0-29.32,9.54-57.38,28.37-83.42
			c18.11-25.05,44.64-47.33,76.71-64.42c41.39-22.05,90.66-35.07,142.46-37.67C531,213.17,537.55,213,544,213 M544,208
			c-6.63,0-13.2,0.17-19.71,0.5c-54.1,2.71-103.82,16.55-144.56,38.25C314.27,281.63,272,336.85,272,399
			c0,105.25,121.23,190.61,270.98,190.99c0.26,0,0.52,0,0.78,0c0.52,0,1.04,0,1.56,0c0.13,0,0.26,0,0.39,0
			c0.31,0,0.62-0.01,0.93-0.01c1.71-0.01,3.41-0.03,5.12-0.06c0.31,0,0.62-0.01,0.92-0.02C698.89,586.68,816,502.45,816,399
			c0-57.44-36.11-108.96-93.26-143.97c-43.17-26.45-98.34-43.48-159.03-46.53C557.2,208.17,550.63,208,544,208L544,208z"/>
	</g>
</g>
<g>
	<path class="st2" d="M543.94,587.5c-0.3,0-0.59,0-0.89-0.01c-72-0.18-139.55-19.97-190.28-55.71
		C302.3,496.21,274.5,449.06,274.5,399c0-29.85,9.7-58.41,28.84-84.89c18.33-25.36,45.15-47.89,77.56-65.16
		c41.72-22.22,91.34-35.35,143.51-37.96c6.5-0.33,13.09-0.5,19.58-0.5s13.08,0.17,19.58,0.5c58.8,2.95,113.38,18.92,157.85,46.17
		C779.94,293,813.5,344.7,813.5,399c0,49.13-26.92,95.66-75.8,131.01c-49.03,35.46-114.76,55.84-185.08,57.39
		c-0.3,0.01-0.58,0.02-0.87,0.02c-1.75,0.03-3.44,0.05-5.14,0.06c-0.33,0.01-0.62,0.01-0.92,0.01l-0.44,0
		c-0.4,0.01-0.8,0.01-1.21,0.01C544.04,587.5,543.96,587.5,543.94,587.5z"/>
	<path d="M544,213c6.45,0,13,0.17,19.46,0.49c29.36,1.48,57.93,6.28,84.91,14.29c26.15,7.76,50.3,18.36,71.76,31.51
		c27.98,17.14,50.97,38.6,66.5,62.07C802.8,345.8,811,371.92,811,399c0,48.31-26.55,94.12-74.76,128.98
		c-48.62,35.17-113.85,55.38-183.67,56.92l-0.03,0l-0.03,0c-0.25,0.01-0.5,0.02-0.75,0.02h-0.04l-0.04,0
		c-1.69,0.03-3.37,0.05-5.06,0.06l-0.04,0l-0.04,0c-0.27,0.01-0.55,0.01-0.82,0.01c-0.09,0-0.18,0-0.27,0l-0.11,0l-0.11,0
		c-0.37,0.01-0.74,0.01-1.11,0.01c-0.03,0-0.07,0-0.1,0c-0.04,0-0.09,0-0.13,0c-0.25,0-0.5,0-0.74-0.01l-0.07,0l-0.07,0
		c-36.13-0.09-71.15-5.14-104.1-14.99c-31.76-9.5-60.25-23.05-84.68-40.26c-24.31-17.13-43.37-37.02-56.65-59.12
		C283.92,447.9,277,423.81,277,399c0-29.32,9.54-57.38,28.37-83.42c18.11-25.05,44.64-47.33,76.71-64.42
		c41.39-22.05,90.66-35.07,142.46-37.67C531,213.17,537.55,213,544,213 M544,208c-6.63,0-13.2,0.17-19.71,0.5
		c-54.1,2.71-103.82,16.55-144.56,38.25C314.27,281.63,272,336.85,272,399c0,105.25,121.23,190.61,270.98,190.99
		c0.34,0.01,0.68,0.01,1.02,0.01c0.44,0,0.88,0,1.32-0.01c0.13,0,0.26,0,0.39,0c0.31,0,0.62-0.01,0.93-0.01
		c1.71-0.01,3.41-0.03,5.12-0.06c0.31,0,0.62-0.01,0.92-0.02C698.89,586.68,816,502.45,816,399c0-57.44-36.11-108.96-93.26-143.97
		c-43.17-26.45-98.34-43.48-159.03-46.53C557.2,208.17,550.63,208,544,208L544,208z"/>
</g>
<g>
	<path class="st1" d="M470.25,584.45c-68.08-7.79-132.19-26.66-185.4-55c-70.52-37.56-117.97-89.49-133.59-146.2l-0.61-2.22
		l-1.78,1.45c-26.82,21.85-52.15,33.41-73.25,33.41c-8.52,0-16.21-1.94-22.86-5.78C31.89,398.07,22.67,368.56,26.78,327
		c4.15-41.97,21.42-91.02,48.62-138.12C121.64,108.8,186.36,52.86,232.8,52.86c8.52,0,16.22,1.95,22.87,5.78
		c22.51,13,31.5,47.12,24.66,93.61l-0.44,2.96l2.63-1.42c71.87-38.88,163.84-60.3,258.98-60.3c95.14,0,187.11,21.41,258.98,60.3
		l2.63,1.42l-0.44-2.96c-6.84-46.49,2.15-80.61,24.66-93.61c6.65-3.84,14.34-5.78,22.87-5.78c46.44,0,111.16,55.93,157.4,136.02
		c27.2,47.1,44.46,96.16,48.61,138.12c4.11,41.55-5.11,71.07-25.97,83.11c-6.65,3.84-14.34,5.78-22.86,5.78
		c-21.1,0-46.43-11.55-73.25-33.41l-1.78-1.45l-0.61,2.22c-15.31,55.56-61.36,106.73-129.67,144.08
		c-50.64,27.69-111.73,46.74-176.86,55.56c43.15-9.4,82.55-26.3,114.83-49.65c49.95-36.12,77.45-83.8,77.45-134.25
		c0-55.72-34.25-108.66-93.98-145.25c-45.04-27.6-100.28-43.76-159.74-46.75c-6.57-0.33-13.23-0.5-19.79-0.5s-13.22,0.17-19.79,0.5
		c-52.75,2.64-102.96,15.93-145.19,38.42C310.06,282.18,270.5,338.15,270.5,399c0,51.4,28.4,99.71,79.97,136.05
		C384.25,558.85,425.38,575.67,470.25,584.45z"/>
	<path d="M850.2,54.36c21.72,0,48.99,13.07,76.8,36.82c28.98,24.75,56.41,58.79,79.31,98.45c27.09,46.92,44.29,95.76,48.42,137.52
		c1.99,20.11,0.83,37.43-3.44,51.47c-4.32,14.18-11.65,24.34-21.78,30.19c-6.42,3.7-13.86,5.58-22.11,5.58
		c-20.45,0-46.13-11.74-72.3-33.07l-3.57-2.91l-1.22,4.43c-7.67,27.82-22.89,54.42-45.25,79.04c-21.95,24.18-50.11,45.75-83.7,64.12
		c-33.85,18.51-72.1,33.15-113.69,43.52c-10.87,2.71-21.89,5.11-33.05,7.19c31.99-9.9,61.28-24.15,86.32-42.26
		C791.27,498.06,819,449.95,819,399c0-56.26-34.51-109.66-94.69-146.53c-45.25-27.73-100.73-43.97-160.45-46.97
		c-6.6-0.33-13.28-0.5-19.86-0.5s-13.27,0.17-19.86,0.5c-52.97,2.65-103.39,16-145.82,38.6C308.85,281.12,269,337.58,269,399
		c0,51.9,28.63,100.65,80.61,137.27c26.41,18.61,57.27,32.97,90.89,42.58c-12.76-2.11-25.37-4.62-37.79-7.54
		c-42.79-10.04-82.2-24.58-117.15-43.19c-70.16-37.37-117.34-88.96-132.85-145.27l-1.22-4.43l-3.57,2.91
		c-26.17,21.32-51.85,33.07-72.3,33.07c-8.26,0-15.7-1.88-22.11-5.58c-10.13-5.85-17.46-16.01-21.78-30.19
		c-4.28-14.04-5.43-31.36-3.44-51.47c4.13-41.76,21.33-90.6,48.42-137.52c22.9-39.66,50.32-73.7,79.31-98.45
		c27.81-23.74,55.08-36.82,76.8-36.82c8.26,0,15.7,1.88,22.12,5.58c21.95,12.68,30.67,46.25,23.92,92.1l-0.87,5.93l5.27-2.85
		c35.1-18.99,74.81-33.83,118.01-44.09C446,100.39,493.19,95,541.5,95s95.5,5.39,140.25,16.02c43.2,10.26,82.91,25.1,118.01,44.09
		l5.27,2.85l-0.87-5.93c-6.75-45.85,1.97-79.42,23.92-92.1C834.5,56.24,841.94,54.36,850.2,54.36L850.2,54.36 M850.2,51.36
		c-8.65,0-16.6,1.94-23.62,5.99c-24.01,13.87-32.08,49.66-25.39,95.13C731.53,114.79,640.76,92,541.5,92s-190.03,22.79-259.69,60.48
		c6.69-45.47-1.38-81.26-25.39-95.13c-7.02-4.05-14.97-5.99-23.62-5.99c-45.88,0-111.21,54.5-158.7,136.77
		C17.65,285.9,7.76,385.87,52,411.41c7.01,4.05,14.97,5.98,23.61,5.98c21.7,0,47.75-12.19,74.2-33.74
		C182.1,500.85,345.18,590,541.5,590c0.49,0,0.99,0,1.48-0.01C393.23,589.61,272,504.25,272,399c0-62.15,42.27-117.37,107.73-152.25
		c40.74-21.7,90.46-35.54,144.56-38.25c6.51-0.33,13.08-0.5,19.71-0.5s13.2,0.17,19.71,0.5c60.69,3.05,115.86,20.08,159.03,46.53
		C779.89,290.04,816,341.56,816,399c0,103.45-117.11,187.68-263.32,190.9c191.3-3.31,348.83-91.28,380.51-206.25
		c26.45,21.55,52.5,33.74,74.2,33.74c8.64,0,16.6-1.94,23.61-5.98c44.24-25.54,34.35-125.51-22.1-223.28
		C961.4,105.86,896.08,51.36,850.2,51.36L850.2,51.36z"/>
</g>
<path class="st3" d="M722.74,255.03L680.5,308.5l-70-82l-63,82l-68-82l-66,66l-33.77-45.75c40.74-21.7,90.46-35.54,144.56-38.25
	h39.42C624.4,211.55,679.57,228.58,722.74,255.03z"/>
<path class="st4" d="M450.5,452.5c0,0-5,110,92,102s90-102,90-102"/>
<circle class="st5" cx="420" cy="374" r="20"/>
<circle class="st5" cx="653" cy="374" r="20"/>
<g>
	<ellipse class="st6" cx="113.5" cy="536" rx="88" ry="52.5"/>
	<path d="M113.5,485c23.37,0,45.29,5.46,61.74,15.38C191.21,510.02,200,522.67,200,536s-8.79,25.98-24.76,35.62
		C158.79,581.54,136.87,587,113.5,587s-45.29-5.46-61.74-15.38C35.79,561.98,27,549.33,27,536s8.79-25.98,24.76-35.62
		C68.21,490.46,90.13,485,113.5,485 M113.5,482C64.07,482,24,506.18,24,536s40.07,54,89.5,54s89.5-24.18,89.5-54
		S162.93,482,113.5,482L113.5,482z"/>
</g>
<g>
	<ellipse class="st6" cx="165.5" cy="484.5" rx="23" ry="50"/>
	<path d="M165.5,436c5.25,0,10.57,4.87,14.62,13.37c4.44,9.33,6.88,21.81,6.88,35.13s-2.45,25.79-6.88,35.13
		c-4.04,8.5-9.37,13.37-14.62,13.37s-10.57-4.87-14.62-13.37c-4.44-9.33-6.88-21.81-6.88-35.13s2.45-25.79,6.88-35.13
		C154.93,440.87,160.25,436,165.5,436 M165.5,433c-13.53,0-24.5,23.06-24.5,51.5s10.97,51.5,24.5,51.5s24.5-23.06,24.5-51.5
		S179.03,433,165.5,433L165.5,433z"/>
</g>
<g>
	<path class="st6" d="M963.63,947.72c-44.01,0-78.38-18.56-79.96-43.17c-0.82-12.76,7.33-25.4,22.94-35.58
		c15.87-10.35,37.46-16.87,60.79-18.37c3.32-0.21,6.67-0.32,9.96-0.32c44.01,0,78.38,18.56,79.96,43.17
		c0.82,12.76-7.33,25.4-22.94,35.58c-15.87,10.35-37.46,16.87-60.79,18.37C970.27,947.61,966.92,947.72,963.63,947.72z"/>
	<path d="M977.38,851.78c21.01,0,40.64,4.37,55.26,12.31c14.23,7.72,22.47,18.19,23.19,29.46c0.78,12.2-7.13,24.36-22.26,34.23
		c-15.65,10.21-36.99,16.65-60.07,18.12c-3.29,0.21-6.61,0.32-9.87,0.32c-21.01,0-40.64-4.37-55.27-12.31
		c-14.23-7.72-22.47-18.19-23.19-29.46c-0.78-12.2,7.13-24.36,22.26-34.23c15.65-10.21,36.99-16.65,60.07-18.12
		C970.79,851.89,974.11,851.78,977.38,851.78L977.38,851.78 M977.37,848.78c-3.3,0-6.67,0.11-10.06,0.32
		c-48.78,3.12-86.89,27.98-85.13,55.54c1.64,25.64,37.22,44.58,81.45,44.58c3.3,0,6.67-0.11,10.06-0.32
		c48.78-3.12,86.89-27.98,85.13-55.54C1057.18,867.71,1021.6,848.78,977.37,848.78L977.37,848.78z"/>
</g>
<g>
	<ellipse class="st6" cx="932.5" cy="947" rx="43.5" ry="22"/>
	<path d="M932.5,927c11.51,0,22.28,2.33,30.31,6.57c7.11,3.75,11.19,8.65,11.19,13.43s-4.08,9.68-11.19,13.43
		c-8.03,4.23-18.79,6.57-30.31,6.57s-22.28-2.33-30.31-6.57C895.08,956.68,891,951.78,891,947s4.08-9.68,11.19-13.43
		C910.22,929.33,920.99,927,932.5,927 M932.5,923c-25.13,0-45.5,10.75-45.5,24s20.37,24,45.5,24s45.5-10.75,45.5-24
		S957.63,923,932.5,923L932.5,923z"/>
</g>
<g>
	<g>
		<path class="st7" d="M202.48,1181.88c-0.42-3.33-0.54-7.65-1.82-11.09c-1.24-3.33-2.5-6.93-4.44-9.99
			c-0.32-0.5-0.67-0.98-1.03-1.45c-1.78-2.37-3.53-4.82-5.5-7.04c-0.85-0.97-1.79-1.86-2.77-2.7c-5.62-4.8-11.54-8.71-17.81-12.52
			c-8.41-5.12-16.86-10.17-25.07-15.61c-4.65-3.08-9.22-6.29-13.64-9.7c2.02,1.56,4.05,3.13,6.07,4.69
			c-8.09-6.26-15.67-13.22-21.95-21.32c1.56,2.02,3.13,4.05,4.69,6.07c-4.12-5.36-7.61-11.17-10.24-17.4
			c1.01,2.39,2.02,4.78,3.02,7.17c-1.34-3.22-2.56-6.52-3.05-9.99c0.36,2.66,0.71,5.32,1.07,7.98c-0.19-1.53-0.24-3.06-0.06-4.59
			c-0.36,2.66-0.71,5.32-1.07,7.98c0.14-1.01,0.38-1.97,0.76-2.91c-1.01,2.39-2.02,4.78-3.02,7.17c0.32-0.71,0.69-1.36,1.16-1.99
			c-1.56,2.02-3.13,4.05-4.69,6.07c0.44-0.54,0.93-1.02,1.47-1.46c-2.02,1.56-4.05,3.13-6.07,4.69c0.61-0.44,1.24-0.81,1.93-1.11
			c-2.39,1.01-4.78,2.02-7.17,3.02c0.94-0.37,1.89-0.61,2.88-0.77c-2.66,0.36-5.32,0.71-7.98,1.07c2.46-0.31,4.92-0.08,7.36,0.24
			c-2.66-0.36-5.32-0.71-7.98-1.07c12.58,1.73,24.88,5.14,36.58,10.06c-2.39-1.01-4.78-2.02-7.17-3.02
			c11.56,4.91,22.46,11.26,32.41,18.94c-2.02-1.56-4.05-3.13-6.07-4.69c7.43,5.77,14.48,12.2,20.27,19.64
			c-1.56-2.02-3.13-4.05-4.69-6.07c3.11,4.05,5.82,8.39,7.82,13.1c-1.01-2.39-2.02-4.78-3.02-7.17c1.37,3.29,2.35,6.71,2.86,10.24
			c-0.36-2.66-0.71-5.32-1.07-7.98c0.36,2.73,0.45,5.47,0.11,8.21c0.36-2.66,0.71-5.32,1.07-7.98c-0.36,2.58-1.06,5.07-2.05,7.47
			c1.01-2.39,2.02-4.78,3.02-7.17c-1.07,2.5-2.43,4.84-4.08,7.01c1.56-2.02,3.13-4.05,4.69-6.07c-1.5,1.92-3.2,3.64-5.12,5.14
			c2.02-1.56,4.05-3.13,6.07-4.69c-1.61,1.22-3.34,2.26-5.2,3.06c2.39-1.01,4.78-2.02,7.17-3.02c-1.64,0.68-3.33,1.16-5.08,1.42
			c2.66-0.36,5.32-0.71,7.98-1.07c-1.68,0.22-3.35,0.22-5.03,0.01c2.66,0.36,5.32,0.71,7.98,1.07c-0.34-0.05-0.68-0.1-1.03-0.17
			c-3.99-1.25-7.98-1.43-11.96-0.54c-3.99,0.18-7.71,1.37-11.15,3.56c-3.5,1.89-6.3,4.46-8.42,7.73c-2.65,2.9-4.44,6.3-5.37,10.2
			c-0.36,2.66-0.71,5.32-1.07,7.98c0.02,5.42,1.38,10.46,4.1,15.14c1.56,2.02,3.13,4.05,4.69,6.07c3.74,3.72,8.16,6.29,13.24,7.72
			c3.72,0.67,7.56,1.38,11.37,1.4c3.76,0.02,7.68-0.72,11.29-1.35c1.08-0.19,2.15-0.47,3.19-0.84c3.48-1.22,6.95-2.63,10.2-4.37
			c0.99-0.53,1.94-1.13,2.85-1.79c2.98-2.17,6.13-4.42,8.83-7c0.88-0.84,1.71-1.74,2.47-2.69c2.33-2.86,4.75-5.79,6.75-8.93
			c2.64-4.15,4.51-8.95,6.13-13.52c1.68-4.74,2.19-10.13,2.61-15.01c0.45-5.16-0.64-10.79-1.43-15.74c-0.44-2.73-1.18-5.4-2.16-7.98
			c-2.97-7.84-6.35-15.09-11.43-21.73c-3.21-4.21-6.37-8.41-10-12.27c-2.05-2.18-4.2-4.26-6.41-6.27
			c-6.12-5.56-12.7-10.66-19.44-15.44c-4.78-3.39-9.76-6.49-14.92-9.28c-7.37-3.99-15.12-7.28-22.9-10.37
			c-5.51-2.18-11.16-4.03-16.89-5.52c-8.11-2.11-16.3-3.26-24.6-4.36c-5.51-0.73-10.49-0.16-16.08,0.95
			c-3.61,0.72-7.13,2.34-10.3,4.16c-0.33,0.19-0.63,0.4-0.93,0.62c-2,1.41-4.53,3.32-6.37,4.93c-2.23,1.96-4.6,5.53-5.87,7.29
			c-4.29,5.95-5.8,14.11-6.13,21.25c-0.17,3.67,0.76,8.11,1.24,11.36c0.19,1.32,0.46,2.61,0.83,3.89c1.37,4.76,3.59,9.44,5.52,13.93
			c1.04,2.4,2.2,4.75,3.49,7.02c3.63,6.43,8.26,12.33,12.93,18.01c3.27,3.97,6.86,7.66,10.65,11.13
			c17.5,15.99,37.98,27.95,58.08,40.28c2.23,1.37,4.43,2.76,6.51,4.35c-2.02-1.56-4.05-3.13-6.07-4.69
			c1.85,1.44,3.57,3.01,5.04,4.84c-1.56-2.02-3.13-4.05-4.69-6.07c0.87,1.13,1.61,2.32,2.18,3.62c-1.01-2.39-2.02-4.78-3.02-7.17
			c0.46,1.1,0.78,2.22,0.96,3.4c-0.36-2.66-0.71-5.32-1.07-7.98c0.02,0.12,0.03,0.24,0.05,0.36c-0.16,4.13,0.71,7.98,2.58,11.56
			c1.21,3.72,3.28,6.94,6.2,9.65c2.72,2.93,5.94,4.99,9.65,6.2c3.58,1.88,7.43,2.74,11.56,2.58c2.66-0.36,5.32-0.71,7.98-1.07
			c5.08-1.43,9.49-4,13.24-7.72c1.56-2.02,3.13-4.05,4.69-6.07C201.1,1192.34,202.47,1187.29,202.48,1181.88L202.48,1181.88z"/>
	</g>
</g>
<g>
	<g>
		<path class="st7" d="M591.75,1160.14c-0.79-0.45-1.59-0.87-2.42-1.24c-3.17-1.42-6.38-2.9-9.69-4c-1.85-0.62-3.76-1.05-5.68-1.34
			c-6.47-0.99-12.72-1.77-19.24-1.64c-8.98,0.17-17.97,0.66-26.95,1c-18.4,0.7-36.8,1.41-55.19,2.11
			c-5.04,0.19-10.09,0.41-15.13,0.57c-4.58,0.15-9.18,0.17-13.73-0.45c2.66,0.36,5.32,0.71,7.98,1.07
			c-2.98-0.43-5.89-1.14-8.68-2.28c2.39,1.01,4.78,2.02,7.17,3.02c-1.87-0.8-3.61-1.75-5.23-2.98c2.02,1.56,4.05,3.13,6.07,4.69
			c-1.47-1.16-2.77-2.48-3.93-3.96c1.56,2.02,3.13,4.05,4.69,6.07c-1.05-1.39-1.93-2.87-2.63-4.46c1.01,2.39,2.02,4.78,3.02,7.17
			c-0.61-1.45-1.05-2.95-1.28-4.51c0.36,2.66,0.71,5.32,1.07,7.98c-0.17-1.31-0.18-2.61-0.02-3.92c-0.36,2.66-0.71,5.32-1.07,7.98
			c0.16-1.09,0.44-2.14,0.85-3.17c-1.01,2.39-2.02,4.78-3.02,7.17c0.46-1.07,1.04-2.06,1.74-3c-1.56,2.02-3.13,4.05-4.69,6.07
			c0.87-1.1,1.85-2.06,2.96-2.92c-2.02,1.56-4.05,3.13-6.07,4.69c1.63-1.21,3.41-2.16,5.28-2.95c-2.39,1.01-4.78,2.02-7.17,3.02
			c3.13-1.28,6.41-2.11,9.7-2.87c4.26-0.98,8.53-1.89,12.82-2.74c8.57-1.69,17.2-3.12,25.86-4.29c-2.66,0.36-5.32,0.71-7.98,1.07
			c9.7-1.3,19.45-2.28,29.22-2.92c9.27-0.61,18.61-0.93,27.85,0.27c-2.66-0.36-5.32-0.71-7.98-1.07c5.5,0.75,10.94,2.03,16.08,4.16
			c-2.39-1.01-4.78-2.02-7.17-3.02c3.88,1.64,7.53,3.74,10.88,6.31c-2.02-1.56-4.05-3.13-6.07-4.69c2.8,2.19,5.34,4.67,7.52,7.48
			c-1.56-2.02-3.13-4.05-4.69-6.07c1.76,2.31,3.24,4.8,4.38,7.47c-1.01-2.39-2.02-4.78-3.02-7.17c0.7,1.69,1.26,3.41,1.67,5.19
			c0.93,3.9,2.72,7.3,5.37,10.2c2.12,3.27,4.92,5.84,8.42,7.73c3.44,2.19,7.16,3.38,11.15,3.56c3.99,0.89,7.98,0.71,11.96-0.54
			c2.39-1.01,4.78-2.02,7.17-3.02c4.51-2.67,8.1-6.25,10.76-10.76c1.01-2.39,2.02-4.78,3.02-7.17c1.43-5.32,1.43-10.63,0-15.95
			c-1.08-4.62-3.16-9.09-5.14-13.35c-0.99-2.13-2.21-4.16-3.62-6.04c-2.79-3.75-5.63-7.72-9.05-10.98
			c-0.84-0.81-1.72-1.58-2.62-2.32c-2.79-2.27-5.64-4.51-8.58-6.59c-1.97-1.39-4.05-2.63-6.21-3.71c-0.99-0.5-2.01-0.95-3.03-1.39
			c-3.42-1.46-6.83-3.03-10.35-4.23c-2.74-0.94-5.55-1.67-8.39-2.22c-5.32-1.04-10.73-1.73-16.12-2.21
			c-11.81-1.06-23.81-0.06-35.59,1.03c-14.82,1.37-29.63,3.37-44.28,6c-13.33,2.39-26.85,4.74-39.05,10.93
			c-0.95,0.48-1.87,1.02-2.74,1.63c-2.88,2.03-5.96,4.14-8.46,6.71c-5.36,5.5-8.3,11.03-10.83,18.17
			c-1.12,3.17-1.39,7.87-1.69,10.52c-0.12,1.09-0.16,2.17-0.06,3.26c0.34,3.52,0.64,7.14,1.54,10.58c0.14,0.54,0.31,1.08,0.51,1.61
			c1.05,2.84,2.28,5.68,3.54,8.43c0.43,0.94,0.93,1.85,1.49,2.72c0.32,0.49,0.66,0.96,1,1.42c1.8,2.41,3.6,4.88,5.58,7.15
			c0.69,0.79,1.44,1.53,2.23,2.22c2.72,2.34,5.54,4.64,8.58,6.54c1,0.63,2.06,1.14,3.13,1.62c3.42,1.53,7.1,3.25,10.79,4.33
			c5.03,1.47,10.41,1.97,15.58,2.47c5.72,0.54,11.49,0.21,17.22-0.01c6.33-0.24,12.65-0.48,18.98-0.73
			c12.74-0.49,25.47-0.98,38.21-1.46c6.33-0.24,12.65-0.48,18.98-0.73c5.93-0.23,11.88-0.59,17.81-0.58c2.7,0,5.39,0.13,8.07,0.47
			c-2.66-0.36-5.32-0.71-7.98-1.07c2.91,0.4,5.74,1.08,8.46,2.19c-2.39-1.01-4.78-2.02-7.17-3.02c1.03,0.44,2.03,0.94,3,1.49
			c3.44,2.19,7.16,3.38,11.15,3.56c3.99,0.89,7.98,0.71,11.96-0.54c3.9-0.93,7.3-2.72,10.2-5.37c3.27-2.12,5.84-4.92,7.73-8.42
			c1.01-2.39,2.02-4.78,3.02-7.17c1.43-5.32,1.43-10.63,0-15.95c-1.01-2.39-2.02-4.78-3.02-7.17
			C599.84,1166.4,596.25,1162.81,591.75,1160.14L591.75,1160.14z"/>
	</g>
</g>
</svg>
