<?xml version="1.0" encoding="utf-8"?>
<!-- Generator: Adobe Illustrator 24.3.0, SVG Export Plug-In . SVG Version: 6.00 Build 0)  -->
<svg version="1.1" id="レイヤー_1" xmlns="http://www.w3.org/2000/svg" xmlns:xlink="http://www.w3.org/1999/xlink" x="0px"
	 y="0px" viewBox="0 0 1343.66 1589.9" style="enable-background:new 0 0 1343.66 1589.9;" xml:space="preserve">
<style type="text/css">
	.st0{fill:#6A3906;}
	.st1{fill:#6A3906;stroke:#000000;stroke-width:4.8615;stroke-miterlimit:10;}
	.st2{fill:#B28247;stroke:#583026;stroke-width:0.4849;stroke-miterlimit:10.0001;}
	.st3{fill:#583026;}
	.st4{fill:#6A3906;stroke:#000000;stroke-width:0.4849;stroke-miterlimit:10;}
	.st5{fill:#6A3906;stroke:#000000;stroke-width:4.6683;stroke-miterlimit:10;}
	.st6{fill:#FFFFFF;}
	.st7{fill:#DB3686;}
	.st8{fill:#C9A063;}
	.st9{fill:#40220F;stroke:#000000;stroke-width:0.4849;stroke-miterlimit:10;}
	.st10{stroke:#000000;stroke-width:0.4849;stroke-miterlimit:10;}
	.st11{fill:#6A3906;stroke:#000000;stroke-width:5.8483;stroke-miterlimit:10;}
	.st12{fill:none;stroke:#000000;stroke-width:4.8488;stroke-miterlimit:10;}
</style>
<g id="レイヤー_1_1_">
	<g>
		<ellipse transform="matrix(0.5 -0.866 0.866 0.5 -469.633 496.2082)" class="st0" cx="194.92" cy="654.82" rx="111.2" ry="73.6"/>
		<path class="st1" d="M220.9,588.86c3.62,8.57,1.71,18.43-1.14,27.29c-9.83,30.56-30.54,57.5-57.55,74.84"/>
	</g>
	<g>
		<g>
			
				<ellipse transform="matrix(0.9922 -0.1247 0.1247 0.9922 -143.4994 143.726)" class="st2" cx="1076.33" cy="1218.14" rx="104.73" ry="75.21"/>
			<g>
				<g>
					<path class="st3" d="M1018.15,1227.44c15.11,4.73,31.57,4.43,47.02,1.64c16.29-2.94,32.37-8.96,46.12-18.25
						c7.32-4.94,13.91-10.83,19.29-17.85c0.8-1.04,0.16-2.71-0.87-3.32c-1.25-0.73-2.52-0.17-3.32,0.87
						c-9.09,11.88-22.47,20.38-36.15,26.12c-14.69,6.16-30.72,9.62-46.66,9.57c-8.2-0.02-16.3-1-24.14-3.46
						C1016.45,1221.83,1015.18,1226.51,1018.15,1227.44L1018.15,1227.44z"/>
				</g>
			</g>
		</g>
		<path class="st0" d="M1076.3,1068.57c0,177.99-144.29,322.28-322.28,322.28s-322.28-144.29-322.28-322.28
			s144.29-511.89,322.28-511.89S1076.3,890.59,1076.3,1068.57z"/>
		<path class="st0" d="M1017.4,1420.18c0,50.9-41.26,92.17-92.17,92.17c-50.9,0-92.17-41.26-92.17-92.17s41.26-125.68,92.17-125.68
			S1017.4,1369.28,1017.4,1420.18z"/>
		<path class="st0" d="M686.4,1420.18c0,50.9-41.26,92.17-92.17,92.17c-50.9,0-92.17-41.26-92.17-92.17s41.26-125.68,92.17-125.68
			C645.13,1294.5,686.4,1369.28,686.4,1420.18z"/>
		<path class="st4" d="M510.45,809.93c-53.68-17.29-109.37,2.46-152.98-48.18c-18.56-21.55-19.04-56.25-53.27-60.11
			c-32.31-3.64-13.26,18.94-29.33,30.35c-17.16,12.19-33.07-10.65-46.56,19.91c-9.11,20.63-4.82,61.47,2.74,81
			c35.97,93.04,187.09,108.01,271.02,108.29"/>
		<path class="st4" d="M979.66,795.97c39.79-0.6,78.1,14.62,108.28-16.62c17.12-17.71,21.91-37.43,29.89-58.92
			c11.43-30.76,39.3-53.41,49.43-6.35c25.52-19.92,48.35,18.1,52.37,39.9c6.98,37.93-8.39,72.56-29.09,103.02
			c-42.36,62.33-115.02,92.47-188.54,92.58"/>
		<g>
			
				<ellipse transform="matrix(0.8259 -0.5638 0.5638 0.8259 -219.9276 250.1895)" class="st0" cx="295.16" cy="481.22" rx="70.68" ry="106.78"/>
			<path class="st5" d="M258.49,438.15c8.92-0.49,17.21,4.43,24.29,9.88c24.43,18.8,42.06,46.26,48.97,76.3"/>
		</g>
		<g>
			<g>
				<path class="st0" d="M554.5,999.39c9.78,2.65,18.43,8.33,26.56,14.2c8.87,6.41,17.33,13.39,26.5,19.38
					c9.72,6.35,20.32,10.69,31.4,14.1c12.03,3.71,24.4,6.18,36.87,7.84c12.53,1.67,25.15,2.51,37.78,2.9
					c12.69,0.39,25.44,0.55,38.13,0.06c24.35-0.93,48.51-4.62,72.14-10.51c23.57-5.87,46.57-13.8,69.31-22.28
					c2.98-1.11,5.95-2.23,8.92-3.36c2.89-1.1,1.64-5.79-1.29-4.68c-22.79,8.64-45.77,16.92-69.31,23.31
					c-23.1,6.28-46.71,10.61-70.61,12.18c-12.59,0.83-25.2,0.83-37.81,0.63c-12.64-0.2-25.29-0.73-37.87-2.01
					c-12.41-1.26-24.75-3.29-36.82-6.45c-11.32-2.96-22.76-6.67-32.93-12.56c-18.29-10.59-33.2-26.88-52.87-35.1
					c-2.22-0.93-4.49-1.72-6.81-2.35C552.77,993.9,551.48,998.58,554.5,999.39L554.5,999.39z"/>
			</g>
		</g>
		<g>
			<g>
				<path class="st0" d="M603.32,1009.45c15,20.12,34.69,36.08,57.86,45.83c22.25,9.36,46.63,12.79,70.66,12.04
					c25.36-0.79,50.52-6.01,74.56-14.01c24.61-8.19,48.29-19.31,70.45-32.78c20.5-12.46,39.94-27.01,57-43.92
					c1.91-1.89,3.78-3.82,5.63-5.77c2.14-2.27-1.28-5.7-3.43-3.43c-15.89,16.85-34.19,31.36-53.62,43.91
					c-21.24,13.72-43.98,25.21-67.71,33.95c-23.51,8.66-48.16,14.78-73.18,16.68c-23.59,1.8-47.61-0.17-70.08-7.9
					c-22.63-7.79-42.66-21.58-58.17-39.79c-2.01-2.36-3.94-4.78-5.79-7.26c-0.79-1.06-2.09-1.57-3.32-0.87
					C603.15,1006.73,602.54,1008.4,603.32,1009.45L603.32,1009.45z"/>
			</g>
		</g>
		<g>
			<g>
				<path class="st6" d="M425.62,1053.95c84.73,0.09,169.45,0.14,254.18,0.16c84.71,0.02,169.42,0.01,254.13-0.04
					c47.64-0.03,95.29-0.06,142.93-0.11c3.12,0,3.13-4.85,0-4.85c-84.83,0.08-169.66,0.13-254.49,0.15
					c-84.68,0.02-169.36,0-254.04-0.05c-47.57-0.03-95.14-0.07-142.71-0.11C422.5,1049.1,422.49,1053.95,425.62,1053.95
					L425.62,1053.95z"/>
			</g>
		</g>
		<g>
			<g>
				<path class="st6" d="M994.08,1048.78c-0.39,1.93-1.26,3.49-2.16,5.21c-0.96,1.85-1.54,3.8-2.19,5.78
					c-1.35,4.11-2.87,8.16-4.7,12.08c-1.8,3.85-3.86,7.57-6.2,11.11c-2.38,3.61-5.5,6.78-7.18,10.79
					c-3.34,7.97-9.32,15.05-15.16,21.35c-5.91,6.37-12.4,12.14-18.97,17.81c-3.32,2.87-6.51,5.74-10.25,8.04
					c-3.25,2.01-5.23,5.29-8.26,7.62c-7.63,5.87-15.6,11.26-23.68,16.49c-8.3,5.38-16.57,10.64-25.33,15.24
					c-8.52,4.47-17.21,8.62-25.98,12.59c-34.07,15.39-69.23,28.47-105.04,39.2c-18.29,5.48-36.77,10.34-55.37,14.64
					c-19.11,4.42-38.32,7.29-57.83,9.18c-4.72,0.46-9.52,0.66-14.18,1.53c-4.32,0.81-8.48,2.25-12.67,3.54
					c-4.54,1.41-9.01,2.5-13.77,2.8c-5.04,0.32-10.07,0.67-15.1,1.01c-20.03,1.35-40.11,2.6-60.2,1.98
					c-4.94-0.15-9.88-0.43-14.81-0.81c-3.11-0.24-3.1,4.61,0,4.85c20.46,1.6,40.97,0.96,61.43-0.29c10.05-0.61,20.1-1.26,30.14-1.98
					c9.26-0.67,17.64-4.89,26.69-6.5c4.86-0.87,9.91-1.03,14.82-1.51c4.98-0.49,9.95-1.03,14.92-1.64
					c9.6-1.18,19.17-2.63,28.65-4.56c19.09-3.88,38.02-8.8,56.75-14.12c36.45-10.36,72.14-23.22,106.93-38.24
					c17.93-7.74,36.04-15.87,52.52-26.4c8.23-5.26,16.47-10.5,24.45-16.14c3.75-2.65,7.68-5.27,11.16-8.28
					c1.42-1.24,2.62-2.69,3.86-4.1c1.35-1.53,3.19-2.54,4.94-3.59c3.7-2.23,6.95-5.68,10.22-8.52c3.27-2.84,6.51-5.72,9.66-8.69
					c6.44-6.08,12.45-12.62,17.6-19.85c2.53-3.55,4.65-7.12,6.4-11.1c1.75-3.97,5.15-7.31,7.49-10.97
					c4.62-7.23,8.03-15.15,10.71-23.29c0.64-1.94,1.24-3.76,2.2-5.56c0.93-1.75,1.74-3.47,2.14-5.43
					C999.37,1047.02,994.69,1045.71,994.08,1048.78L994.08,1048.78z"/>
			</g>
		</g>
		<path class="st6" d="M992.59,1055c-0.29-0.9-0.79-1.68-1.5-2.34c-0.49-0.38-0.98-0.76-1.47-1.14c-1.13-0.66-2.36-0.99-3.67-0.99
			c-0.64,0.09-1.29,0.17-1.93,0.26c-1.08,0.3-2.03,0.83-2.86,1.56c-1.75-2.22-4.57-3.18-7.61-2.58c-3.49,0.69-6.98,1.34-10.48,1.97
			c-0.71-0.23-1.46-0.33-2.26-0.26c-9.07,0.82-18.14,1.57-27.23,2.26c-9.84-0.27-19.67-0.54-29.51-0.8
			c-18.22-0.5-36.44-0.99-54.67-1.49c-9.78-0.27-19.99-0.85-29.39,2.38c-3.22-0.76-6.44-0.71-9.66,0.15
			c-0.25,0.05-0.51,0.09-0.76,0.15c-6.99-0.88-14.04-1.35-21.06-1.3c-5.79,0.05-11.6,0.43-17.37,1.11
			c-8.21-0.46-16.41-0.92-24.62-1.39c-2.45-0.09-4.75,0.38-6.9,1.39c-2.18-0.56-4.35-1.17-6.5-1.82c-2.58-0.81-5.16-0.92-7.73-0.35
			c-2.51,0.11-4.85,0.85-7.03,2.19c-2.23-0.19-4.47-0.4-6.7-0.58c-21.11-1.69-42.25-2.89-63.41-3.6c-21.06-0.7-42.13-0.92-63.2-0.65
			c-10.39,0.13-20.79,0.32-31.17,0.78c-4.79,0.21-9.58,0.53-14.34,1.1c-4.3-0.83-8.65-1.36-12.99-1.61c-1.61-0.09-3.23-0.1-4.85,0
			c-4,0.26-8.04,0.81-11.97,1.59c-3.39,0.67-6.74,1.83-9.94,3.27c-19.48-1.02-38.95-2.04-58.43-3.07
			c-5.81-0.3-12.35,2.17-17.29,5.75c0.58,1.97,0.69,4.14,0.41,6.2c0.28-2.07-0.09,1.76-0.1,2.15c-0.01,0.63,0,1.27,0.04,1.9
			c0.01,0.16,0.02,0.3,0.03,0.42c0.1,0.38,0.52,2.12,0.56,2.39c0.34,1.93,0.55,3.64,0.32,5.54c0.12,0.58,0.2,1.16,0.22,1.75
			c0,0.02,0.01,0.12,0.01,0.24c0.08,0.43,0.35,2.93,0.41,3.62c0.15,1.74,0.07,3.55-0.34,5.25c-0.16,0.66-0.39,1.32-0.65,1.96
			c0.27,0.93,0.39,1.9,0.33,2.88c-0.15,2.38-0.47,4.75-0.81,7.11c0,0.38-0.03,0.77-0.06,1.16c1.22,2.64,1.1,5.78-0.05,8.47
			c0.33,1.65,0.21,3.24-0.21,4.8c0.01,0.06,0.01,0.12,0.02,0.18c0.57,1.3,0.89,2.71,0.88,4.13c0,0.8-0.03,1.6-0.05,2.39
			c0.33,1.04,0.52,2.13,0.52,3.19v4.17c1.47,4.72,2.76,9.5,4.34,14.18c1.28,3.78,2.36,7.86,2.07,11.87c1.65,1.36,2.95,3.2,3.68,5.35
			c1.75,5.14,3.23,10.47,5.47,15.42c2.34,5.16,6.49,9.03,8.02,14.6c0.41,1.49,0.5,2.88,0.36,4.16c1.23,1.78,2.18,3.75,2.7,5.64
			c0.03,0.1,0.05,0.2,0.07,0.3c0.56,0.36,1.09,0.78,1.57,1.24c3.04,2.94,4.93,6.69,6.13,10.71c0.11,0.37,0.21,0.75,0.31,1.12
			c0.44,0.3,0.86,0.61,1.24,0.96c1.92,1.76,3.06,4.78,3.11,7.36c3.66,4.25,6.38,8.73,8.53,13.91c0.68,1.64,1.12,4.2,1.68,5.47
			c0.92,2.1,3.07,3.8,4.17,5.9c0.34,0.64,0.59,1.27,0.79,1.9c0.03,0.04,0.07,0.08,0.1,0.13c1.06,1.36,1.86,2.85,2.38,4.39
			c0.86,0.74,1.58,1.63,2.08,2.66c1.67,3.43,3.86,6.51,5.18,9.96c1.8,0.95,3.4,2.35,4.6,4.01c1.99,2.75,3.38,5.8,4.54,8.95
			c0.28,0.24,0.55,0.49,0.77,0.76c2.16,2.62,4.56,5.16,6.36,8.06c3.66-0.36,7.32-0.71,10.97-1.09c25.52-2.64,50.99-5.75,76.36-9.54
			c22.91-3.42,45.72-7.53,68.3-12.67c22.42-5.11,44.62-11.24,66.37-18.71c23.86-8.2,47.32-17.93,69.85-29.32
			c2.54-1.28,5.07-2.59,7.58-3.92c3.39-1.83,6.11-4.33,8.16-7.49c0.03-0.04,0.06-0.08,0.1-0.11l5.11-1.66
			c2.11,1.1,4.64,1.05,7.06-0.09c14.34-6.76,28.25-14.42,41.62-22.94c0.67-0.43,1.33-0.87,2-1.3c5.91,0.55,11.41-1.91,16.43-5.08
			c4.56-2.88,9.09-5.8,13.61-8.74c9.62-6.28,19.05-12.84,28.06-19.99c8.2-6.5,16.13-13.53,22.69-21.72c3.6-4.49,6.8-9.18,9.51-14.26
			c0.34-0.64,0.67-1.29,1-1.93c4.39-1.89,8.38-4.36,11.73-7.86c3.52-3.67,6.04-7.94,7.77-12.7c0.47-1.29,0.3-3.01-0.2-4.42
			c2.38-2.52,4.64-5.14,6.57-8.04c1.77-2.67,3.19-5.68,4.03-8.78l0.58-0.58c0.71-0.66,1.21-1.44,1.5-2.34
			c0.46-0.87,0.66-1.8,0.63-2.8C993.25,1056.8,993.05,1055.86,992.59,1055z"/>
		<g>
			<g>
				<path class="st6" d="M426.24,1055.65c84.8,0.18,169.6,0.29,254.4,0.33c84.61,0.04,169.22,0.01,253.84-0.08
					c47.49-0.05,94.98-0.12,142.47-0.22c9.36-0.02,9.38-14.56,0-14.55c-84.61,0.17-169.22,0.27-253.82,0.3
					c-84.67,0.03-169.33,0-254-0.1c-47.63-0.06-95.26-0.14-142.89-0.24C416.88,1041.09,416.86,1055.63,426.24,1055.65
					L426.24,1055.65z"/>
			</g>
		</g>
		<g>
			<g>
				<path class="st7" d="M552.45,1118.3c0,19.15-15.52,34.67-34.67,34.67s-34.67-15.52-34.67-34.67s15.52-50.21,34.67-50.21
					C536.93,1068.09,552.45,1099.16,552.45,1118.3z"/>
			</g>
			<g>
				<path class="st7" d="M467.57,1102.76c-19.15,0-34.67-15.52-34.67-34.67s15.52-34.67,34.67-34.67s50.21,15.52,50.21,34.67
					C517.79,1087.24,486.72,1102.76,467.57,1102.76z"/>
			</g>
			<g>
				<path class="st7" d="M483.12,1017.88c0-19.15,15.52-34.67,34.67-34.67c19.15,0,34.67,15.52,34.67,34.67
					c0,19.15-15.52,50.21-34.67,50.21S483.12,1037.03,483.12,1017.88z"/>
			</g>
			<g>
				<path class="st7" d="M568,1033.42c19.15,0,34.67,15.52,34.67,34.67s-15.52,34.67-34.67,34.67c-19.15,0-50.21-15.52-50.21-34.67
					C517.79,1048.94,548.85,1033.42,568,1033.42z"/>
			</g>
			<g>
				<path class="st7" d="M552.45,1118.3c0,19.15-15.52,34.67-34.67,34.67s-34.67-15.52-34.67-34.67s15.52-50.21,34.67-50.21
					C536.93,1068.09,552.45,1099.16,552.45,1118.3z"/>
			</g>
		</g>
		<ellipse class="st4" cx="730.83" cy="481.23" rx="341.09" ry="297.73"/>
		<ellipse class="st8" cx="596.68" cy="655.45" rx="208.58" ry="121.87"/>
		<ellipse class="st9" cx="564.78" cy="548.3" rx="65.44" ry="44.17"/>
		<path class="st10" d="M543.52,391.25h50.71c0,48.46-22.89,88.34-50.71,88.34s-50.71-39.88-50.71-88.34s22.89-88.34,50.71-88.34
			c13.79,0,27,9.8,36.55,27.11L543.52,391.25z"/>
		<path class="st10" d="M781.54,391.25l36.83-61.78c-9.69-16.98-22.98-26.55-36.83-26.55c-28.27,0-51.53,39.88-51.53,88.34
			s23.26,88.34,51.53,88.34s51.53-39.88,51.53-88.34h-51.53V391.25z"/>
		<g>
			<g>
				<path d="M431.73,1040c-5.7,3.35-5.98,11.59-5.96,17.42c0.01,3.31,0.25,6.61,0.43,9.92c0.23,4.19,0.12,8.39,0.04,12.59
					c-0.41,21.33-1.92,42.98,3.5,63.84c5,19.26,14.41,37,23.91,54.35c10.52,19.22,21.5,38.16,32.57,57.07
					c3.85,6.59,7.26,13.43,11.23,19.95c3.82,6.27,8.41,12.82,14.91,16.54c1.5,0.86,3.12,1.55,4.79,2.01
					c3.01,0.84,4.29-3.84,1.29-4.68c-6.24-1.74-10.92-7.41-14.51-12.74c-3.99-5.92-7.11-12.34-10.61-18.54
					c-5.14-9.1-10.57-18.05-15.82-27.09c-5.44-9.37-10.78-18.79-15.98-28.29c-9.18-16.76-18.72-33.54-24.7-51.77
					c-3.01-9.17-5.06-18.63-5.72-28.26c-0.73-10.78-0.5-21.6-0.23-32.39c0.21-8.53,0.52-17.05,0.02-25.58
					c-0.2-3.38-0.36-6.77-0.19-10.15c0.08-1.62,0.2-2.94,0.5-4.39c0.28-1.39,0.66-2.66,1.17-3.6c0.14-0.27,0.31-0.52,0.47-0.78
					c0.28-0.44-0.07-0.01,0.29-0.37c0.2-0.2,0.39-0.41,0.61-0.59c0.28-0.24-0.3,0.2,0.01-0.01c0.15-0.1,0.3-0.19,0.45-0.28
					C436.86,1042.6,434.43,1038.41,431.73,1040L431.73,1040z"/>
			</g>
		</g>
		<g>
			<g>
				<path d="M523.52,547.91c20.59,6.48,42.76,8.38,64.19,6.06c6.16-0.67,12.28-1.66,18.33-3.04c1.66-0.38,2.65-2.29,2.21-3.89
					c-0.47-1.71-2.22-2.59-3.89-2.21c-20.3,4.64-41.75,5-62.22,1.2c-5.72-1.07-11.38-2.47-16.94-4.22
					C521.31,540.59,519.65,546.69,523.52,547.91L523.52,547.91z"/>
			</g>
		</g>
		<g>
			
				<ellipse transform="matrix(0.1705 -0.9854 0.9854 0.1705 621.3115 1126.4305)" class="st0" cx="979.69" cy="194.19" rx="88.55" ry="133.78"/>
			<path class="st11" d="M1064.91,196.16c-8.18,7.64-20.1,9.58-31.28,10.04c-38.59,1.59-77.6-10.62-108.4-33.92"/>
		</g>
		<g>
			<g>
				
					<ellipse transform="matrix(0.944 -0.3301 0.3301 0.944 -39.6982 170.8177)" class="st0" cx="483.15" cy="202.31" rx="133.78" ry="88.55"/>
			</g>
			<path class="st11" d="M537.76,155.74c-2.31,10.95-10.96,19.38-19.85,26.18c-30.69,23.45-69.64,35.84-108.23,34.44"/>
		</g>
		<line class="st12" x1="979.66" y1="1058.97" x2="959.74" y2="1087.25"/>
		<line class="st12" x1="945.36" y1="1104.28" x2="924.96" y2="1124.68"/>
		<line class="st12" x1="912.46" y1="1137.4" x2="890.46" y2="1157.57"/>
		<line class="st12" x1="866.53" y1="1166.72" x2="843.49" y2="1179.41"/>
		<line class="st12" x1="821.83" y1="1192.66" x2="790.42" y2="1207.33"/>
		<line class="st12" x1="771.59" y1="1216.59" x2="742.94" y2="1227.95"/>
		<line class="st12" x1="730.23" y1="1232.26" x2="709.86" y2="1241.77"/>
		<line class="st12" x1="698.22" y1="1244.03" x2="669.68" y2="1248.27"/>
		<line class="st12" x1="663.17" y1="1253.39" x2="642.31" y2="1259.16"/>
		<line class="st12" x1="630.1" y1="1259.88" x2="605.41" y2="1266.71"/>
		<line class="st12" x1="507.26" y1="1273.67" x2="540.84" y2="1273.67"/>
		<line class="st12" x1="554.09" y1="1270.22" x2="591.91" y2="1265.45"/>
		<g>
			<g>
				<path class="st6" d="M816.83,1199.67c-0.05,0.07-0.09,0.14-0.14,0.21c-0.11,0.15-0.06,0.09,0.13-0.16
					c-0.03,0.1-0.2,0.24-0.27,0.31c-0.2,0.22-0.42,0.44-0.64,0.64c-0.1,0.09-0.21,0.17-0.32,0.27c-0.23,0.21,0.48-0.33,0.03-0.03
					c-0.23,0.15-0.46,0.31-0.7,0.46c-0.54,0.33-1.11,0.6-1.68,0.86c-0.42,0.19,0.3-0.11,0.01,0c-0.14,0.05-0.27,0.11-0.41,0.16
					c-0.3,0.12-0.61,0.23-0.92,0.34c-2.43,0.86-4.93,1.48-7.26,2.6c-1.15,0.55-1.54,2.28-0.87,3.32c0.76,1.18,2.09,1.46,3.32,0.87
					c0.14-0.07,0.28-0.13,0.42-0.2c0.43-0.2-0.48,0.18,0.01,0c0.25-0.1,0.51-0.2,0.77-0.29c0.59-0.21,1.18-0.41,1.78-0.6
					c1.27-0.41,2.55-0.79,3.79-1.26c2.82-1.06,5.41-2.49,7.14-5.04c0.71-1.05,0.23-2.73-0.87-3.32
					C818.92,1198.16,817.6,1198.55,816.83,1199.67L816.83,1199.67z"/>
			</g>
		</g>
		<g>
			<g>
				<path class="st6" d="M869.81,1172.65c-4.87,4.91-11.66,7.59-18,10.04c-3.34,1.29-6.71,2.52-10,3.94
					c-3.74,1.6-7.18,3.74-10.53,6.03c-3.84,2.62-7.6,5.35-11.71,7.54c-2.76,1.47-0.31,5.65,2.45,4.19
					c7.31-3.89,13.54-9.58,21.09-13.05c6.64-3.06,13.7-5.07,20.24-8.37c3.59-1.81,7.05-4.01,9.9-6.88
					C875.44,1173.86,872.01,1170.43,869.81,1172.65L869.81,1172.65z"/>
			</g>
		</g>
		<g>
			<g>
				<path class="st6" d="M875.89,1174.35c-2.13-0.52-4.38-0.03-6.43,0.6c-2.58,0.8-5.08,1.91-7.52,3.06
					c-2.42,1.14-4.8,2.36-7.2,3.56c-0.93,0.47-1.87,0.93-2.82,1.37c-0.18,0.08-0.36,0.16-0.54,0.24c-0.44,0.2,0.34-0.13-0.07,0.03
					c-1.04,0.41-2.08,0.84-3.11,1.27c-4.45,1.87-8.8,3.96-13.09,6.18c-1.72,0.89-1.42,3.23,0,4.19c3.9,2.63,8.95,0.98,12.77-0.91
					c3.98-1.97,7.63-4.71,10.95-7.64c1.9-1.67-0.13-4.6-2.36-4.05c-4.49,1.11-8.77,3.14-12.85,5.27c-4.17,2.17-8.2,4.58-12.19,7.07
					c-2.24,1.4-0.83,5.36,1.87,4.43c10.96-3.76,20.49-10.5,31.07-15.11c1.2-0.52,1.48-2.28,0.87-3.32c-0.72-1.24-2.11-1.4-3.32-0.87
					c-10.18,4.44-19.36,11.01-29.91,14.62c0.62,1.48,1.25,2.95,1.87,4.43c3.87-2.41,7.79-4.76,11.82-6.88
					c3.84-2.02,7.82-3.92,12.05-4.97c-0.79-1.35-1.57-2.7-2.36-4.05c-2.79,2.46-5.78,4.66-9.09,6.43c-1.62,0.86-3.28,1.54-5.07,1.93
					c-0.51,0.11-1.38,0.19-2.16,0.09c0.34,0.04-0.09-0.02-0.22-0.06c-0.2-0.06-0.39-0.1-0.59-0.17c0.24,0.09,0.02,0.01-0.09-0.05
					c-0.22-0.11-0.43-0.25-0.63-0.38c0,1.4,0,2.79,0,4.19c3.53-1.83,7.11-3.58,10.75-5.18c2.49-1.09,5.05-2.04,7.49-3.23
					c4.42-2.16,8.77-4.6,13.37-6.28c1.15-0.42,2.32-0.8,3.52-1.04c0.15-0.03,0.82-0.14,0.35-0.08c0.24-0.03,0.48-0.05,0.71-0.06
					c0.22-0.01,0.44,0.01,0.66,0c0.39,0-0.44-0.11,0.19,0.04C877.64,1179.76,878.93,1175.09,875.89,1174.35L875.89,1174.35z"/>
			</g>
		</g>
		<g>
			<g>
				<path class="st6" d="M871.53,1177.06c-2.17,0.01-4.33,0.34-6.47,0.7c-0.99,0.16-1.97,0.32-2.96,0.47
					c-0.18,0.02-0.15,0.02,0.07-0.01c-0.15,0.02-0.3,0.04-0.46,0.06c-0.23,0.03-0.46,0.05-0.69,0.07c-0.53,0.05-1.07,0.09-1.61,0.11
					c-1.27,0.05-2.48,1.08-2.42,2.42c0.06,1.27,1.07,2.48,2.42,2.42c2.17-0.08,4.33-0.44,6.47-0.8c0.49-0.08,0.99-0.16,1.48-0.24
					c0.23-0.04,0.46-0.07,0.68-0.1c0.29-0.04,0.3-0.04,0.04-0.01c0.11-0.02,0.23-0.03,0.34-0.04c1.03-0.12,2.06-0.2,3.09-0.2
					c1.27-0.01,2.48-1.11,2.42-2.42C873.89,1178.18,872.89,1177.05,871.53,1177.06L871.53,1177.06z"/>
			</g>
		</g>
		<g>
			<g>
				<path class="st6" d="M965.26,1099.66c-5.12,2.33-8.48,7.7-11.8,11.99c-4.02,5.2-8.94,9.61-12.81,14.94
					c-0.77,1.06-0.18,2.7,0.87,3.32c1.22,0.72,2.55,0.19,3.32-0.87c3.64-5.03,8.34-9.16,12.13-14.07c1.68-2.17,3.3-4.4,5.11-6.47
					c1.62-1.85,3.36-3.63,5.62-4.66c1.19-0.54,1.48-2.27,0.87-3.32C967.86,1099.3,966.46,1099.11,965.26,1099.66L965.26,1099.66z"/>
			</g>
		</g>
		<g>
			<g>
				<path class="st6" d="M980.35,1074.29c0,0.27-0.02,0.54-0.04,0.81c-0.02,0.25-0.21,0.48,0.02-0.06
					c-0.05,0.11-0.04,0.26-0.06,0.38c-0.11,0.63-0.26,1.25-0.44,1.87c-0.2,0.67-0.43,1.34-0.68,1.99c-0.06,0.15-0.12,0.29-0.18,0.44
					c0.22-0.54,0,0-0.06,0.12c-0.16,0.35-0.32,0.7-0.49,1.04c-0.31,0.62-0.65,1.23-1.02,1.83c-0.19,0.31-0.4,0.62-0.61,0.93
					c-0.1,0.15-0.21,0.29-0.32,0.44c-0.29,0.41,0.29-0.34-0.05,0.07c-0.4,0.46-0.79,0.92-1.25,1.33c-0.02,0.02-0.35,0.28-0.35,0.3
					c-0.01-0.09,0.44-0.31,0.01-0.02c-0.23,0.16-0.47,0.3-0.72,0.42c-1.13,0.57-1.55,2.26-0.87,3.32c0.75,1.16,2.1,1.48,3.32,0.87
					c2.76-1.39,4.71-4.35,6.05-7.03c1.38-2.76,2.57-5.9,2.6-9.03c0.01-1.27-1.12-2.48-2.42-2.42
					C981.45,1071.92,980.36,1072.93,980.35,1074.29L980.35,1074.29z"/>
			</g>
		</g>
	</g>
</g>
<g id="体">
</g>
</svg>
