<?xml version="1.0" encoding="utf-8"?>
<!-- Generator: Adobe Illustrator 24.3.0, SVG Export Plug-In . SVG Version: 6.00 Build 0)  -->
<svg version="1.1" id="レイヤー_1" xmlns="http://www.w3.org/2000/svg" xmlns:xlink="http://www.w3.org/1999/xlink" x="0px"
	 y="0px" viewBox="0 0 812.3 568.22" style="enable-background:new 0 0 812.3 568.22;" xml:space="preserve">
<style type="text/css">
	.st0{fill:none;stroke:#000000;stroke-miterlimit:10;}
	.st1{fill-rule:evenodd;clip-rule:evenodd;}
	.st2{fill:#40220F;stroke:#956134;stroke-width:4.3189;stroke-miterlimit:10;}
	.st3{fill:#6A3906;stroke:#000000;stroke-width:0.2158;stroke-miterlimit:10;}
	.st4{fill:#C9A063;}
	.st5{fill:#40220F;stroke:#000000;stroke-width:0.2158;stroke-miterlimit:10;}
	.st6{stroke:#000000;stroke-width:0.2158;stroke-miterlimit:10;}
	.st7{fill:#6A3906;}
	.st8{fill:#6A3906;stroke:#000000;stroke-width:2.6034;stroke-miterlimit:10;}
	.st9{fill:#FFFFFF;stroke:#000000;stroke-width:1.6908;stroke-miterlimit:10;}
</style>
<g>
	<g>
		<path class="st0" d="M211.14,266.12"/>
	</g>
</g>
<g>
	<g>
		<g>
			<path class="st1" d="M735.42,274.41c-0.09-0.43-0.36-1.76-0.8-3.95c-0.26-1.09-0.57-2.39-0.93-3.9
				c-0.36-1.51-0.77-3.23-1.33-5.13c-0.54-1.9-1.09-4.02-1.85-6.29c-0.37-1.14-0.75-2.33-1.15-3.57c-0.41-1.23-0.89-2.5-1.36-3.81
				c-0.91-2.65-2.07-5.41-3.27-8.38c-1.29-2.92-2.62-6.04-4.23-9.23c-6.27-12.83-15.52-27.65-28.68-42.45
				c-6.56-7.4-14.05-14.81-22.52-21.94c-4.2-3.61-8.7-7.07-13.34-10.55c-4.71-3.39-9.57-6.82-14.7-10.05
				c-20.46-13.06-44.35-24.51-70.91-33.65c-26.56-9.15-55.77-16.03-86.94-20.2c-31.16-4.17-64.29-5.67-98.65-3.78
				c-34.34,1.9-69.97,7.16-105.67,17.22c-17.84,5.05-35.68,11.32-53.2,19.18c-17.51,7.86-34.72,17.3-51,28.76
				c-8.12,5.75-16,12.02-23.5,18.83c-3.77,3.39-7.39,6.98-10.95,10.64c-3.51,3.73-6.97,7.52-10.23,11.53
				c-6.56,7.96-12.59,16.48-17.81,25.57c-5.24,9.07-9.78,18.62-13.34,28.58c-3.57,9.95-6.35,20.22-8.07,30.68
				c-1.75,10.44-2.61,21.04-2.63,31.57c-0.06,10.51,0.8,21.16,2.53,31.67c0.82,5.27,2.01,10.49,3.29,15.68
				c1.39,5.17,2.91,10.32,4.76,15.35c1.77,5.07,3.9,10,6.11,14.88c2.32,4.83,4.74,9.62,7.47,14.23c2.66,4.65,5.61,9.11,8.65,13.5
				c3.12,4.33,6.31,8.61,9.75,12.65c6.8,8.18,14.26,15.73,22.14,22.71c3.92,3.52,8,6.82,12.12,10.06c4.16,3.17,8.37,6.28,12.69,9.19
				c17.23,11.75,35.63,21.33,54.5,29.24c18.88,7.92,38.27,14.14,57.82,18.99c39.12,9.68,78.84,14.05,117.81,14.25
				c38.98,0.15,77.29-3.89,113.81-12.14c2.28-0.53,4.55-1.07,6.82-1.6c2.26-0.57,4.52-1.14,6.78-1.7c3.05-0.81,2.47-0.67,3.13-0.85
				l1.33-0.38c1.77-0.5,3.53-1.01,5.27-1.54c3.48-1.03,6.89-2.13,10.24-3.21c14.93-3.93,29.77-8.53,44.4-14.1
				c7.32-2.77,14.59-5.77,21.79-9.03c7.2-3.28,14.33-6.81,21.37-10.64c1.74-0.81,3.58-1.72,5.24-2.59c1.66-0.87,3.16-1.63,4.19-2.2
				c1.17-0.64,2.34-1.3,3.51-1.98c-0.38,0.68-0.72,1.39-1,2.13c-0.46,1.68-0.8,3.53-0.35,5.62c0.27,0.31,0.29,0.9,0.47,1.29
				c0.38,0.82,1.1,1.63,1.67,2.18c0.37,0.36,0.79,0.51,1.13,0.79c0.11,0.09,0.06,0.23,0.16,0.29c0.47,0.3,1.48,0.64,2.05,0.81
				c0.26,0.08,0.52,0.07,0.8,0.15c0.04,0.01,0.02,0.13,0.08,0.15c1.27,0.22,2.75,0.09,4.43-0.3c0.1-0.03,0.03-0.14,0.18-0.15
				c0.48-0.13,0.97-0.29,1.4-0.48c2.28-1.1,4.35-3.39,5.08-5.36c0.66-1.84,0.24-4.3-0.92-5.59c-1-1.12-2.96-1.63-5.19-1.33
				c-1.99,0.26-3.86,1.22-4.35,2.72c0.64-0.25,1.21-0.33,1.59-0.11c0.25,0.31,0.5,0.62,0.51,1.23c-0.22,0.84-0.86,1.77-2.13,1.85
				c-1.78,0.12-3.11-1.44-2.52-3.19c0.26-0.37,0.38-0.88,0.53-1.18c0.34-0.68,0.67-1.23,1.06-1.81c1.04-1.55,2.38-3.37,3.5-4.6
				c0.2-0.2,0.4-0.42,0.6-0.62c2.17-1.47,4.28-2.89,6.28-4.23c2.01-1.35,3.93-2.58,5.72-3.68c-0.03,0.03-0.06,0.06-0.09,0.09
				c-0.88,0.97-1.42,1.81-2.08,2.81c-0.24,0.38-0.61,0.71-0.81,1.06c-0.07,0.12-0.03,0.32-0.1,0.46c-0.23,0.49-0.54,0.92-0.73,1.47
				c-0.59,1.74-0.79,4.11,0.39,5.85c1.19,0.98,2.6,1.63,4.87,1.17c0.24-0.05,0.45-0.16,0.69-0.22c1.48-0.62,2.52-1.71,2.98-2.91
				c0.45-1.23,0.34-2.57-0.43-3.71c-0.28-0.08-0.52-0.2-0.7-0.43c-1.11-0.34-3.37,0.49-3.7,1.58c0.43-0.26,0.63-0.37,1.02-0.2
				c0.65,0.69-0.21,1.74-1.27,1.54c-0.83-0.59-1.01-1.48-0.89-2.63c0.05-0.47,0.26-0.9,0.42-1.38c0.21-0.64,0.34-1.3,0.63-1.85
				c0.26-0.5,0.67-0.93,0.99-1.38c0.09-0.12,0.11-0.24,0.18-0.34c0.25-0.33,0.42-0.64,0.69-0.94c0.36-0.4,0.81-0.73,1.23-1.18
				c0.2-0.22,0.33-0.5,0.54-0.73c0.14-0.15,0.29-0.29,0.44-0.44c2.02-1.02,3.99-1.84,6.04-2.39c2.02-0.59,4.12-0.89,6.42-0.82
				c2.25,0.07,3.8,0.76,4.77,1.76c0.98,1,1.37,2.3,1.29,3.51c-0.15,2.42-2.17,4.5-4.83,3.05c0.47-1.93,0.97-4.75,0.2-5.95
				c-0.38-0.6-1.08-0.8-2.25-0.3c-1.17,0.5-2.79,1.72-5.13,3.85c-2.09,2.75-2.25,5.27-1.16,7.34c1.1,2.07,3.47,3.66,6.43,4.37
				c2.95,0.69,6.49,0.46,9.86-1.01c3.32-1.53,6.48-4.27,8.43-8.56c0.84-1.77,1.32-3.4,1.5-4.87c0.19-1.46,0.11-2.74-0.2-3.86
				c-0.62-2.24-2.15-3.81-4.17-4.84c-4.06-2.05-9.98-1.93-15.06-0.43c-7.59,2.29-14.15,5.59-20.44,9.4
				c-6.28,3.82-12.24,8.21-18.38,12.62c4.74-7.43,11.67-13.83,19.49-18.86c7.84-5,16.61-8.69,25.27-9.91
				c4.44-0.57,9.41-0.83,14.1-0.06c4.63,0.73,8.93,2.46,11.71,6.04c1.41,1.82,1.61,3.47,1.18,4.79c-0.44,1.3-1.5,2.27-2.54,2.78
				c-2.08,1.02-4.08,0.19-1.23-3.28c-1.61-1.19-3.35-0.59-4.79,0.95c-1.43,1.56-2.67,3.96-3.2,6.57c-0.53,2.62-0.46,5.31,0.8,7.4
				c1.26,2.07,3.68,3.5,7.88,3.29c3.75-0.24,6.88-1.85,9.29-4.3c2.39-2.48,4.12-5.7,5.06-9.2c0.48-1.74,0.8-3.5,0.93-5.26
				c0.12-1.77,0.08-3.51-0.1-5.14c-0.37-3.26-1.36-6.13-2.82-8.13c-4.73-6.45-10.69-8.56-16.95-8.4
				c-6.31,0.16-12.92,2.64-19.58,5.89c-6.64,3.28-13.26,7.42-19.37,11.43c-6.12,4.01-11.71,7.92-15.94,11.12
				c5.33-7.52,12.76-14.8,20.7-21.78c7.96-6.94,16.33-13.74,23.95-19.28c6.02-4.33,13.99-9.05,21.24-10.22
				c5.55-0.85,8.31,2,9.18,5.21c0.43,1.59,0.43,3.26,0.07,4.45c-0.36,1.2-1.01,1.95-1.79,1.78c-1.25-0.28-0.7-2.79-0.89-4.63
				c-0.21-1.87-1.04-2.94-4.91-0.56c-1.72,1.03-2.71,2.39-3.19,3.94c-0.48,1.54-0.52,3.23-0.22,4.95c0.29,1.71,0.88,3.44,1.58,4.97
				c0.69,1.52,1.48,2.85,2.22,3.78c3.4,4.31,7.15,5.5,10.73,4.38c3.52-1.15,6.89-4.54,9.12-9.06c1.16-2.22,1.97-4.76,2.48-7.34
				c0.53-2.57,0.65-5.24,0.37-7.79c-0.49-5.09-2.78-9.74-6.87-12.65c-4.58-3.27-9.02-4.81-13.2-5.16c-4.19-0.36-8.07,0.5-11.85,2.1
				c-7.46,3.27-14.23,9.61-20.93,16.84c-6.67,7.25-13.3,15.45-19.67,22.76c-6.31,7.33-12.25,13.83-16.53,17.93
				c0.1-0.39,0.2-0.78,0.3-1.17c4.54-6.81,7.88-14.48,9.66-22.24c6.15-8.4,14.44-13.95,23.86-20.18c2.36-1.55,4.71-3.18,7.16-4.85
				c2.37-1.72,4.87-3.46,7.23-5.4c4.85-3.81,9.5-8.21,13.72-13.37c4.79-5.86,6.93-13.63,8.76-21.12c1.85-7.54,3.45-14.82,7.7-20.96
				c1.16-1.63,2.21-3.17,3.37-4.57c1.14-1.41,2.37-2.69,3.61-3.84c2.53-2.3,5.5-4.07,9.36-5.2c6.54-1,9.86,2.86,10.71,6.63
				c0.45,1.87,0.17,3.69-0.55,4.75c-0.73,1.07-1.93,1.38-3.5,0.34c-0.09-3.14,1.4-1.75,1.62-3.87c-1.16-1.94-2.59-2.47-4-2.1
				c-1.42,0.37-2.8,1.63-4,3.33c-1.19,1.7-2.1,3.83-2.52,6c-0.46,2.17-0.39,4.39,0.5,6.29c2.97,6.59,7.68,8.64,12.52,7.24
				c4.84-1.37,9.66-6.31,12.17-12.79c0.26-2.26,0.4-4.4,0.35-6.41c-0.07-2.01-0.28-3.89-0.61-5.64c-0.61-3.51-1.91-6.48-3.45-8.97
				c-1.54-2.5-3.55-4.48-5.75-6.04c-2.21-1.56-4.66-2.68-7.26-3.44c-10.38-3-23.05-0.32-32.12,3.96
				c-12.13,5.78-20.44,12.22-26.49,19.18c-6.04,6.97-9.81,14.53-12.73,22.84c-0.36,1.04-0.72,2.09-1.08,3.14
				c-0.36,1.06-0.65,2.14-0.99,3.22c-0.71,2.14-1.25,4.38-1.92,6.6c-1.25,4.58-2.51,9.21-3.77,13.84
				c-2.66,9.4-5.75,19.19-9.87,28.12c0.47-6.28-1.59-12.19-3.82-17.89c-1.95-4.98-5.53-9.82-9.83-12.77
				c-2.15-1.49-4.49-2.53-6.88-2.96c-2.39-0.43-4.82-0.24-7.32,0.7c-2.66-1.4-5.31-2.62-7.88-3.35c-2.6-0.74-5.01-0.95-7.26-0.33
				c-1.35,0.36-2.34,0.98-3.04,1.8c-0.73,0.81-1.14,1.83-1.24,3.01c-0.23,2.34,0.68,5.3,2.89,8.33c2.84,2.82,5.25,4.12,8.56,3.63
				c1.1-0.16,2.54-1.38,3.1-2.61c0.57-1.23,0.13-2.49-2.4-2.83c0.3,2.9-2.23,0.44-2.84-1.29c1.96-2.18,4.67-0.85,7.95,1.91
				c0.03,0.02,0.05,0.05,0.09,0.07c8.01,6.79,13.63,13.23,16.87,19.55l-0.01,0c-0.73-0.22-1.33-0.16-1.95-0.32
				c-0.2-0.05-0.26-0.23-0.43-0.25c-0.78-0.1-2.2,0.03-2.98,0.1c-0.36,0.04-0.64,0.17-1.03,0.21c-0.06,0.01-0.13-0.15-0.21-0.13
				c-1.65,0.32-3.21,1.15-4.82,2.33c-0.1,0.07,0.07,0.19-0.09,0.25c-0.45,0.36-0.9,0.74-1.24,1.15c-1.78,2.24-2.67,5.73-2.21,8.51
				c0.42,2.54,2.43,5.53,4.73,6.81c1.97,1.08,4.8,0.99,7.48-0.38c2.33-1.27,4.07-3.44,3.58-5.56c-0.6,0.64-1.29,1.01-1.92,0.93
				c-0.54-0.27-1.07-0.54-1.51-1.3c-0.32-1.16-0.19-2.57,1.25-3.33c1.53-0.8,3.53-0.32,4.68,1.03c1.67,11.23-3.82,21.95-13.23,30.52
				c0.03-0.05,0.05-0.09,0.08-0.15c0.83-1.6,1.27-2.88,1.67-4.5c0.15-0.6,0.49-1.19,0.6-1.73c0.04-0.19-0.13-0.44-0.1-0.67
				c0.08-0.74,0.28-1.44,0.25-2.24c-0.06-2.54-1.15-5.77-3.7-7.66c-2.08-0.86-4.3-1.3-6.96-0.12c-0.28,0.12-0.5,0.33-0.77,0.46
				c-3.15,2.33-3.2,6.67-0.13,9.44c0.41,0.05,0.79,0.16,1.13,0.43c1.65,0.22,4.38-1.46,4.25-3.06c-0.44,0.48-0.67,0.67-1.26,0.56
				c-1.2-0.76-0.58-2.39,0.91-2.43c1.4,0.55,2.1,1.68,2.51,3.29c0.17,0.65,0.09,1.31,0.11,2.02c0.02,0.94,0.13,1.87-0.03,2.7
				c-0.15,0.74-0.54,1.45-0.79,2.15c-0.07,0.19-0.05,0.36-0.11,0.51c-0.21,0.53-0.32,1-0.57,1.5c-0.33,0.65-0.85,1.22-1.26,1.94
				c-0.2,0.35-0.27,0.78-0.49,1.15c-0.13,0.22-0.29,0.43-0.44,0.65c-1.59,1.23-3.27,2.38-5.02,3.49c-2.02,1.42-4.75,3.23-7.07,4.68
				c-17.9,14.97-38.56,27.03-60.35,36.35c-10.89,4.71-22.1,8.71-33.47,12.21c-1.42,0.45-2.85,0.86-4.27,1.27l-2.14,0.62l-1.97,0.54
				l-2.71,0.69c-1.81,0.45-3.61,0.93-5.43,1.35c-14.5,3.48-29.16,6.26-43.91,8.35c-29.5,4.18-59.35,5.71-89.12,4.74
				c-16.81-0.65-33.71-2.13-50.59-4.49c-16.88-2.35-33.75-5.58-50.46-9.84c-33.38-8.51-66.35-20.93-96.53-39.06
				c-15.06-9.06-29.38-19.59-42.28-31.78c-12.89-12.17-24.36-26.03-33.49-41.36c-9.11-15.34-15.82-32.12-19.71-49.47
				c-3.92-17.36-5.01-35.15-3.84-52.65c1.18-17.54,4.96-34.91,11.38-51.16c6.38-16.26,15.32-31.36,26-44.78
				c10.67-13.45,23.06-25.23,36.34-35.47c13.28-10.25,27.45-18.97,42-26.43c14.56-7.46,29.51-13.69,44.57-18.93
				c15.08-5.19,30.25-9.44,45.39-12.81c30.28-6.78,60.34-10.23,89.4-11.29c29.07-1.04,57.19,0.36,83.82,3.78
				c26.63,3.41,51.8,8.8,75.02,15.9c11.61,3.53,22.73,7.5,33.31,11.84c10.58,4.31,20.6,9.05,30.02,14.07
				c18.86,10.01,35.21,21.41,48.81,33.26c13.6,11.87,24.35,24.29,32.52,36.05c8.14,11.81,13.75,22.9,17.61,32.31
				c3.85,9.43,6.03,17.15,7.43,22.59c0.63,2.74,1.19,4.89,1.48,6.47c0.31,1.58,0.5,2.55,0.57,2.89c1.83,9.32,3.37,17.8,4.9,24.01
				c0.81,3.1,1.55,5.64,2.38,7.4c0.83,1.76,1.73,2.76,2.66,2.76c0.93,0,1.8-0.99,2.57-2.83c0.78-1.83,1.48-4.5,1.88-7.83
				C737.5,293.83,737.4,284.49,735.42,274.41z"/>
		</g>
	</g>
	<path class="st2" d="M45.99,308.6c-1.16,2.18-2.7,5.94-2.47,10.88c0.28,6.12,4.19,8.69,8.06,8.51c4.95-0.23,7.06-3.31,10.58-10.87
		c4.5-9.88,10.69-14.49,19.77-14.91c12.05-0.56,21.24,6.96,21.89,21c0.28,5.96-1.33,12.09-3.18,15l-11.26-1.76
		c2.01-3.24,3.49-8.34,3.27-13.2c-0.3-6.43-3.96-9.64-9.09-9.41c-4.95,0.23-7.78,3.27-10.8,10.09
		c-4.08,9.31-10.29,15.26-19.29,15.67c-11.33,0.53-20.42-6.84-21.02-19.86c-0.27-5.73,1.06-10.19,2.55-13.09L45.99,308.6z"/>
	<path class="st2" d="M110.71,252.78l-2.41,11.93l-18.77,0.61l-3.2,15.86l17.1,7.7l-2.33,11.55l-64.49-30.5l2.89-14.32
		L110.71,252.78z M79.31,264.95l-16.16,0.42c-4.42,0.07-10.1-0.04-14.4-0.11l-0.05,0.23c4.08,1.63,9.44,3.75,13.24,5.4l14.82,6.68
		L79.31,264.95z"/>
	<path class="st2" d="M133.35,211.15l-5.6,10.19l-31.34-2.43c-7.79-0.6-16.99-1.62-24.83-3.06l-0.15,0.28
		c7.73,3.71,16.36,8.18,27.18,14.12l18.63,10.23l-5.07,9.22l-60.7-33.34l6.05-11.01l30.75,2.37c7.63,0.52,16.67,1.63,24.16,2.97
		l0.08-0.14c-8.08-3.63-16.83-8.08-26.7-13.5l-18.23-10.01l5.07-9.22L133.35,211.15z"/>
	<path class="st2" d="M167.1,172.32c-1.41,3.59-4.88,9.77-9.7,14.61c-6.48,6.52-13.32,9.57-21.01,9.13
		c-7.81-0.45-16.62-5-24.41-12.74c-16.61-16.5-15.91-34.96-3.67-47.28c4.32-4.35,8.81-7.08,12.01-8l6.08,9.47
		c-2.96,0.93-6.16,2.62-9.93,6.41c-7.58,7.63-7.98,18.76,3.9,30.56c11.37,11.3,22.38,11.72,29.41,4.64c1.99-2.01,3.17-3.83,3.5-4.93
		l-12.01-11.93l-6.14,6.18l-7.47-7.43l13.95-14.04L167.1,172.32z"/>
	<path class="st2" d="M203.29,151.5l-28.08,18.77l-38.49-57.57l27.03-18.07l6.21,9.28l-17.37,11.61l9.31,13.92l16.39-10.95
		l6.06,9.06l-16.39,10.95l10.71,16.02l18.41-12.31L203.29,151.5z"/>
	<path class="st2" d="M248.9,129.94l-10.57,4.83l-23.68-20.67c-5.88-5.14-12.65-11.45-18.08-17.29l-0.29,0.13
		c3.98,7.59,8.23,16.34,13.36,27.56l8.83,19.33l-9.57,4.37l-28.76-63l11.43-5.22l23.24,20.28c5.81,4.97,12.4,11.27,17.6,16.81
		l0.14-0.07c-4.31-7.73-8.67-16.53-13.35-26.77l-8.64-18.92l9.57-4.37L248.9,129.94z"/>
	<path class="st2" d="M271.64,97.94c5.83,18.18-0.09,25.94-10.78,29.37c-2.62,0.84-6,1.36-8.19,1.21l-2.13-10.76
		c1.59,0.06,3.67-0.14,5.84-0.83c5.01-1.61,7.48-5.24,4.17-15.53L246.65,58.1l11.07-3.55L271.64,97.94z"/>
	<path class="st2" d="M331.29,108.24l-11.9,2.58l-8.1-16.95l-15.81,3.43l-0.19,18.75l-11.51,2.5l2.05-71.31l14.28-3.1L331.29,108.24
		z M307.54,84.36l-6.87-14.64c-1.84-4.02-4.02-9.27-5.68-13.24l-0.23,0.05c0.15,4.39,0.35,10.15,0.37,14.3l-0.17,16.26L307.54,84.36
		z"/>
	<path class="st2" d="M370.68,34.15l-13.24,42.37l3.21,28.46l-11.55,1.3l-3.16-28.01l-21.61-38.89l12.88-1.45l7.84,16.25
		c2.27,4.73,4.16,8.87,6.1,13.45l0.16-0.02c0.66-4.7,1.63-9.34,2.79-14.54l3.88-17.48L370.68,34.15z"/>
	<path class="st2" d="M427.08,102.07l-12.17,0.22l-4.64-18.2l-16.17,0.29l-3.84,18.35l-11.78,0.21l15.89-69.55l14.61-0.26
		L427.08,102.07z M408.44,74.03l-3.89-15.69c-1.02-4.31-2.14-9.87-3-14.09l-0.24,0c-0.71,4.34-1.63,10.03-2.42,14.09l-3.33,15.91
		L408.44,74.03z"/>
	<path class="st2" d="M492.88,108.21l-13.19-1.46l-10.53-31.97l-5.21,6.4l-2.6,23.54l-11.47-1.27l7.62-68.83l11.47,1.27l-3.45,31.15
		l0.23,0.03c1.55-2.55,3.16-5,4.7-7.45l15.45-21.85l13.74,1.52l-21.37,27.44L492.88,108.21z"/>
	<path class="st2" d="M545.16,90.19c-4.35,19.79-14.58,27.22-27.93,24.29c-13.27-2.91-18.8-13.62-14.43-33.5l8.73-39.75l11.35,2.49
		l-8.98,40.9c-2.61,11.87,0.16,17.92,5.99,19.2c6.14,1.35,11-2.84,13.64-14.89l8.98-40.9l11.35,2.49L545.16,90.19z"/>
	<path class="st2" d="M602.8,141.06l-10.35-3.93l8.53-25.56c2.97-8.7,5.93-17.59,9.1-25.73l-0.22-0.08
		c-4.56,7.13-9.88,14.94-14.53,21.45l-16.85,23.56l-8.22-3.12l3.55-28.13c0.95-8.02,2.51-17.45,4.2-25.86l-0.22-0.08
		c-3.25,8.11-7.26,17.57-10.67,25.43l-10.57,24.5l-9.91-3.77l28.41-63.29l13.43,5.1l-3.15,26.64c-1.14,8.53-2.4,16.72-3.97,24.6
		l0.22,0.08c4.07-6.74,8.73-13.93,13.59-20.94l15.63-21.9l13.36,5.08L602.8,141.06z"/>
	<path class="st2" d="M647.02,167.83l-10.41-6.31l5.79-17.87l-13.83-8.39l-13.04,13.48l-10.07-6.11L656,92.29l12.49,7.57
		L647.02,167.83z M646.22,134.17l5.08-15.35c1.43-4.19,3.46-9.49,4.98-13.52l-0.2-0.12c-2.91,3.29-6.73,7.61-9.57,10.63
		l-11.31,11.68L646.22,134.17z"/>
	<path class="st2" d="M690.58,208.08c-2.48-0.79-6.8-3.41-11.06-7.93c-12.44-13.2-9.04-30.22,5.91-44.29
		c17.63-16.61,35.86-15.12,46.85-3.46c4.47,4.74,6.26,8.88,6.66,10.88l-9.43,5.75c-0.76-2.52-2.13-5.54-4.98-8.57
		c-6.84-7.26-18.03-7.72-30.23,3.77c-11.41,10.75-12.71,21.58-5.22,29.52c2.48,2.63,5.71,4.87,8.17,5.79L690.58,208.08z"/>
	<path class="st2" d="M713.35,251.79l-5.84-10.68l13.97-12.56l-7.76-14.2l-18.04,5.12l-5.65-10.34l68.98-18.2l7.01,12.82
		L713.35,251.79z M729.54,222.26l12.1-10.73c3.34-2.9,7.75-6.47,11.09-9.19l-0.11-0.21c-4.17,1.38-9.64,3.21-13.61,4.4l-15.64,4.43
		L729.54,222.26z"/>
	<path class="st2" d="M713.66,255.84L781,239.69l7.54,31.46l-10.86,2.6l-4.83-20.16l-17.78,4.26l4.5,18.79l-10.6,2.54l-4.5-18.79
		l-28.11,6.74L713.66,255.84z"/>
	<path class="st2" d="M722.65,326.97l-1.48-33.74l69.18-3.04l1.43,32.48l-11.16,0.49l-0.92-20.87l-16.73,0.74l0.87,19.69
		l-10.89,0.48l-0.87-19.69l-19.25,0.85l0.97,22.13L722.65,326.97z"/>
</g>
<g>
	<g>
		<g>
			<g>
				<g>
					<path d="M235.62,296.65c0.25-0.07-0.1-0.56-0.12-0.68C235.19,296.28,235.7,296.79,235.62,296.65z"/>
					<polygon points="232.06,299.63 232.05,299.37 231.61,300.17 					"/>
					<path d="M227.96,300.88c0.66,0.89,1.46-0.56,2.29-0.44l0.19,0.19l0.08-0.89C229.68,300.13,228.67,301,227.96,300.88z"/>
					<path d="M225.31,299.2c0.21,0.37-0.39,0.43,0.51,0.02c-0.06-0.03-0.08-0.06-0.11-0.08
						C225.63,299.16,225.51,299.19,225.31,299.2z"/>
					<path d="M225.71,299.14C226.12,299.03,225.38,298.87,225.71,299.14L225.71,299.14z"/>
					<path d="M223.85,299.71l0.48-0.44c-0.15-0.21-0.63-0.19-0.48-0.39C223.34,299.15,223.48,299.37,223.85,299.71z"/>
					<path d="M223.44,300.53l0.27-0.19C223.64,300.25,223.56,300.22,223.44,300.53z"/>
					<path d="M224.26,299.93l-0.56,0.4c0.1,0.15,0.16,0.48,0.26-0.15C223.96,300.49,224.04,300.19,224.26,299.93z"/>
					<path d="M224.63,300.03c0.35,0.17,0.78,0.23,0.28,0.68C225.96,300.37,225.65,299.7,224.63,300.03z"/>
					<path d="M228,301.96l0.52,0.18l0.29-0.43C228.67,301.92,227.9,301.66,228,301.96z"/>
					<path d="M220.56,299.46c-0.03,0.22,0.18,0.58,0.22,0.86l0.37-0.26C220.95,299.91,220.58,299.78,220.56,299.46z"/>
					<path d="M220.78,300.32c-0.19,0.13-0.39,0.27-0.57,0.38C220.72,300.75,220.82,300.55,220.78,300.32z"/>
					<path d="M223.48,301.67c0.31-0.31,0.62-0.61,0.92-0.93c-0.36,0.33-0.73,0.65-1.12,0.97L223.48,301.67z"/>
					<path d="M218.61,299.32l0.32-0.47c-0.18,0.24-0.36,0.46-0.56,0.69L218.61,299.32z"/>
					<path d="M217.5,299.19c0.25-0.36,0-0.75,0.22-0.95c-0.12,0-0.25,0.08-0.4,0.18c-0.13,0.1-0.27,0.22-0.41,0.34
						C217.13,298.68,217.29,298.78,217.5,299.19z"/>
					<path d="M216.45,299.08c0.11-0.04,0.28-0.17,0.46-0.31C216.77,298.82,216.63,298.92,216.45,299.08z"/>
					<path d="M219.25,300.55c-0.03-0.14-0.09-0.49-0.36-0.66l0.15,0.63C219.1,300.53,219.18,300.54,219.25,300.55z"/>
					<path d="M219.04,300.54l-0.01-0.02c-0.23-0.03-0.39-0.06-0.45-0.08C218.64,300.46,218.78,300.49,219.04,300.54z"/>
					<path d="M219.31,300.56c-0.02,0-0.03,0-0.05-0.01C219.27,300.61,219.28,300.63,219.31,300.56z"/>
					<path d="M221.79,301.28c-0.33,0.38-1.1,0.76-0.32,1.26C221.71,302.1,221.27,301.83,221.79,301.28z"/>
					<path d="M219.54,301.35l0.63,0.16c-0.01-0.16-0.12-0.4,0.05-0.57L219.54,301.35z"/>
					<path d="M219.22,301.52l0.31-0.17c-0.08-0.02-0.15-0.04-0.23-0.07L219.22,301.52z"/>
					<path d="M216.85,299.87c-0.27,0.18-0.48,0.12-0.71,0.07c0.19,0.2,0.4,0.39,0.68,0.46
						C216.92,300.23,217.13,299.93,216.85,299.87z"/>
					<path d="M217.82,300.3l-0.06,0.02C217.78,300.39,217.8,300.41,217.82,300.3z"/>
					<polygon points="214.71,298.71 214.63,298.79 214.73,298.74 					"/>
					<path d="M216.83,300.53c0.18,0.17,0.34,0.08,0.52-0.08c-0.18,0.03-0.35,0-0.53-0.04C216.77,300.48,216.75,300.53,216.83,300.53
						z"/>
					<path d="M215.9,299.08c-0.01,0.14-0.02,0.29,0.02,0.43C215.94,299.29,216.01,298.96,215.9,299.08z"/>
					<path d="M217.72,300.15c0.01-0.01,0.02-0.02,0.04-0.02C217.72,299.98,217.71,300.05,217.72,300.15z"/>
					<path d="M217.72,300.15c-0.13,0.06-0.25,0.19-0.38,0.3c0.15-0.02,0.29-0.06,0.41-0.12
						C217.74,300.28,217.73,300.21,217.72,300.15z"/>
					<path d="M210.79,299.68c0.28-0.08,0.62,0.02,0.86,0.23c0.22,0.22,0.42,0.5,0.36,0.99c0.39,0.16,0.87-0.19,1.32-0.66
						c0.45-0.47,0.93-1.04,1.31-1.45c-0.21,0.11-0.42,0.29-0.91,0.03c-0.12,0.15-0.15,0.46-0.21,0.74c-0.07,0.28-0.17,0.56-0.51,0.5
						c-0.67-0.5-0.15-0.66-0.03-1.09c-0.26,0.28-0.6,0.19-0.99,0.02c-0.36-0.17-0.8-0.41-1.27-0.17c0.21,0.24,0.38,0.48,0.62,0.69
						C211.2,299.6,210.83,299.4,210.79,299.68z"/>
					<path d="M215,299.35l0.16,0.04c-0.07-0.17,0.03-0.44,0.27-0.84c-0.34,0.04-0.53,0.08-0.7,0.18c0.04,0.11,0.09,0.21,0.17,0.3
						c0.07,0.09,0.11,0.21,0.2,0.28L215,299.35z"/>
					<path d="M215.7,299.81c-0.41,0.47-0.98,0.39-1.12,1.11c0.55,0.35,0.67-0.2,1.09-0.26c-0.9-0.3,0.39-0.19,0-0.79
						c0.2-0.02,0.34,0.02,0.46,0.06c-0.09-0.14-0.17-0.29-0.22-0.44c0,0.02,0,0.03,0,0.04l0,0l-0.01,0.01
						c-0.01,0.08-0.02,0.13-0.03,0.07c-0.01,0.01-0.02,0-0.02,0C215.81,299.7,215.75,299.76,215.7,299.81
						c-0.1-0.24,0.05-0.15,0.16-0.19l0.06-0.07l0-0.01c-0.25-0.04-0.53-0.06-0.76-0.15C215.19,299.57,215.37,299.67,215.7,299.81z"
						/>
					<path d="M220.79,303.89c-0.04-0.05-0.04-0.1-0.05-0.14C220.65,303.83,220.62,303.88,220.79,303.89z"/>
					<path d="M220.22,303.52c0.1-0.08,0.18-0.33,0.5-0.27c0.28,0.18,0,0.3,0.02,0.5c0.2-0.17,0.67-0.46,0.06-0.75l-0.09,0.09
						c-0.56-0.19-1.19-1.01-1.09-1.08C219.74,302.57,219.86,302.97,220.22,303.52z"/>
					<path d="M217.33,302.02c-0.35,0.04-0.7,0.05-1.05,0.04c0.11,0.22,0.23,0.44,0.35,0.67l0.06-0.32
						C217.24,302.67,217.21,302.25,217.33,302.02z"/>
					<path d="M214.94,298.5l0.59-0.29c-0.3,0.1-0.63,0.19-0.94,0.21C214.7,298.46,214.82,298.49,214.94,298.5z"/>
					<path d="M214.58,297.87l0.55-0.15c-0.12-0.02-0.25-0.05-0.38-0.08L214.58,297.87z"/>
					<path d="M173.89,270.7l-0.39,0.06C173.68,270.75,173.8,270.73,173.89,270.7z"/>
					<path d="M176.43,271.39l0.13-0.26C176.4,271.26,176.33,271.36,176.43,271.39z"/>
					<path d="M218.88,265.91c0.44,0.26,0.78,0.72,0.74,0.67l-0.1-0.12C219.29,266.2,219.07,266.04,218.88,265.91z"/>
					<path d="M197.51,270.3c0.05,0.06,0.1,0.13,0.15,0.19c0.12-0.21,0.23-0.41,0.34-0.6C197.85,270.02,197.68,270.16,197.51,270.3z"
						/>
					<path d="M197.14,272.89l-0.67-0.4C196.62,272.63,196.84,272.76,197.14,272.89z"/>
					<path d="M161.12,260.84l-0.73-0.28C160.58,261.26,160.8,260.87,161.12,260.84z"/>
					<path d="M214.47,283.59c0.26-0.41,0.38-0.73,0.42-1.02C214.51,283.05,213.95,283.44,214.47,283.59z"/>
					<path d="M176.56,264.56c-0.22,0.06-0.34,0.16-0.37,0.29C176.42,264.8,176.56,264.72,176.56,264.56z"/>
					<path d="M214.96,281.39c-0.07,0.07-0.1,0.14-0.16,0.21c0.09,0.31,0.14,0.61,0.09,0.98
						C215.17,282.21,215.37,281.82,214.96,281.39z"/>
					<path d="M178.53,212.75c0.05-0.01,0.09-0.03,0.14-0.03C178.62,212.65,178.58,212.68,178.53,212.75z"/>
					<path d="M193.75,208.81c-0.1,0.1-0.28,0.22-0.45,0.33C193.41,209.13,193.55,209.03,193.75,208.81z"/>
					<path d="M214.76,293.07C214.78,293.4,214.82,293.12,214.76,293.07L214.76,293.07z"/>
					<path d="M212.22,294.58c-0.07-0.07-0.15-0.13-0.29-0.15C212.08,294.47,212.17,294.52,212.22,294.58z"/>
					<path d="M211.38,277.91l0.01-0.03C211.25,277.96,211.27,277.95,211.38,277.91z"/>
					<path d="M214.45,293.56c0.08-0.12,0.15-0.27,0.2-0.42C214.6,293.21,214.54,293.34,214.45,293.56z"/>
					<path d="M214.75,293.51c-0.03,0.12-0.05,0.21-0.07,0.29C214.78,293.84,214.85,293.81,214.75,293.51z"/>
					<path d="M214.74,292.6c0,0.19-0.03,0.37-0.09,0.54c0.04-0.06,0.08-0.09,0.1-0.07C214.75,292.97,214.75,292.83,214.74,292.6z"/>
					<path d="M164.82,236.57c0.03-0.01,0.05-0.03,0.08-0.05C164.77,236.12,164.76,236.27,164.82,236.57z"/>
					<path d="M210.27,272.5c0.02-0.01,0.04-0.02,0.06-0.04l0.01-0.02L210.27,272.5z"/>
					<path d="M209.1,273.06c1.24-0.88,1.32-0.79,1.24-0.62c0.85-0.67,1.67-1.33,2.44-1.99C211.45,271.33,210.22,272.2,209.1,273.06z
						"/>
					<path d="M167.83,268.88l0.61,0.85c-0.33,0.12-0.61,0.17-0.85,0.19c-0.12,0.01-0.22,0.02-0.31,0.03
						c-0.08,0.01-0.26-0.02-0.35-0.03c-0.43-0.03-0.43,0.1,0.07,0.73c0.8-1.73,3.32,0.99,4.06-0.83l0.41,0.57
						c-0.15-0.07-0.21,0.03-0.36-0.04c0.78,1.25,1.21-1.09,2.47-0.44c0.43,0.28,0.69,0.64,0.3,0.78l1.18-0.17
						c0.3,0.12,0.14,0.43-0.16,0.31c0.55,0.11,1.11,0.17,1.66,0.24l-0.03,0.05c0.3-0.25,0.93-0.59,1.23-0.73
						c0.35,0.37-0.25,0.16-0.2,0.42l0.99-0.26c0.26,0.58-0.58,0.89-1.19,0.68c0.44,2.08,0.84-0.27,2.45,1.16l-0.91,0.09
						c0.35,1.19,1.1,0.91,1.98,1.77c-0.19-0.4-1.66-2.06-0.58-2.37c0.25,0.19,0.61,0.33,1.2,0.03c-0.11,0.68,0.44,0.62,1.1,0.67
						l-0.18,0.9c0.75-0.17,0.76-0.64,1.23-1c0.77,0.19,0.85,0.92,0.96,1.54c1.25,0.31-0.73-1.25,0.78-1.23
						c1.01,0.48,1.79,0.15,3.08-0.28c0.7,0.38-0.17,0.55,0.07,0.84l0.71-0.67c0.16,0.03,0.09,0.25,0.05,0.36
						c0.57-0.25,0.11-0.91,0.98-1.12c0.28-1,1.66,1.59,2.78,0.48c0.25,0.27-0.15,0.56-0.08,0.92c1.48-0.72,1.27-0.52,2.47-1.5
						l1,0.63c-0.73-0.69,0.23-1.51,1.04-2.18c-0.26-0.33-0.48-0.63-0.62-0.76l1.29-0.5c0.16,0.15,0.03,0.47-0.18,0.85
						c0.09-0.08,0.17-0.15,0.24-0.22c0.46,0.34,0.23,0.87-0.11,1.39c-0.16-0.18-0.32-0.37-0.47-0.57c-0.32,0.56-0.63,1.18-0.57,1.72
						c0.09-0.11,0.25-0.2,0.43-0.25c-0.09,0.15-0.14,0.29-0.1,0.38c0.04,0.1,0.18-0.11,0.4-0.34l0.3,1.03l0.07-0.41l1.74,0.63
						c1.23-1.08,2.25-2.59,4.16-3.11c-0.45,0.78-0.05,1.23-0.04,2.13c-0.57-0.91-1.5,0.46-2.53,0.3c0.53,0.08,0.43,0.51,0.3,0.66
						c0.6-0.31,1.2-0.6,1.79-0.92c-0.01,0.73,0.41,0.53,0.89,0.81c-0.21-0.71,0.11-0.97,0.58-1.11c0.23-0.07,0.5-0.11,0.76-0.16
						l0.19-0.04c0.04-0.01,0.07-0.03,0.11-0.05c0.07-0.04,0.15-0.08,0.21-0.14c0.01,0.24-0.03,0.49-0.12,0.66
						c-0.05,0.09-0.09,0.16-0.16,0.2c-0.13,0.04-0.32,0.06-0.54,0.04c0.24,0.26,0.52,0.28,0.59,0.18c0.07-0.1,0.16-0.32,0.26-0.55
						c0.2-0.46,0.54-0.94,0.77-0.5c-0.15,0.02-0.21-0.05-0.31,0.2c0.43-0.46,1.19-0.17,0.78,0.28l-0.13,0.02
						c0.62,0.1,1.7-0.07,3.08-0.84c0.36-0.19,0.72-0.43,1.06-0.7c-0.2,0.17-1.89,1.6-2.24,1.89c1.01-0.76,2.19-1.55,3.52-2.34
						l1.03-0.6l0.54-0.3c0.09-0.03,0.14-0.04,0.21-0.05c0.26-0.06,0.5-0.1,0.72-0.13c-0.07,0.02-0.1,0.05-0.11,0.08
						c-0.02,0.02,0.04-0.02-0.05,0.05c-0.16,0.11-0.32,0.23-0.48,0.35c-0.33,0.24-0.67,0.47-0.99,0.71
						c-1.34,0.94-2.71,1.83-3.45,2.19c-0.05,0.15-0.2,0.34,0.8-0.12c0.19-0.16,2.3-1.7,2.71-1.84c-0.7,0.64-0.93,0.81-1.06,0.96
						c-0.15,0.15-0.22,0.26-0.97,0.82c0.15-0.12,1.09-0.67,2.06-1.19c0.96-0.52,1.99-1.01,2.17-1c-0.59,0.3-3.5,1.93-3.97,2.14
						c1.38-0.66,2.89-1.34,4.53-2.03c-0.96,0.38-3.25,1.66-4.24,2.2c0.17-0.1,0.3-0.13,0.37-0.18c0.06-0.07,0.09-0.12,0.08-0.18
						c0.01-0.13-0.15-0.27,0.03-0.47c0.33-0.09,0.66-0.17,0.96-0.23c-0.29-0.24,0.96-1.27,2.2-2.44c1.24-1.15,2.39-2.48,1.62-2.7
						c-0.53,0.68-4.28,3.74-5.09,3.96c0.79-0.76,2.66-2.67,4.02-4.41l0.25-0.32c0.03-0.06-0.05-0.01-0.07-0.01l-0.21,0.04
						c-0.13,0.05-0.29,0.09-0.41,0.17c-0.21,0.28-0.41,0.55-0.59,0.79l-0.16,0.21c-0.22,0.28-0.43,0.56-0.54,0.82
						c0.06-0.12,0.13-0.31,0.32-0.53c0.08-0.11,0.17-0.23,0.27-0.36l0.07-0.09l0.04-0.05c0.02-0.03-0.06,0.05-0.08,0.07l-0.46,0.4
						c-0.6,0.57-1.32,1.08-1.82,1.8c-0.55,0.68-1.05,1.29-1.44,1.78c-1.01,0.7-1.17,0.99-1.43,1.01c-0.89,0.83-1.08,1.15-1.07,1.21
						c-0.4,0.16-0.65,0.51-0.9,0.78c0.81-0.8,1.14-1.09,1.4-1.3c0.27-0.2,0.49-0.32,1.1-0.9c-0.32,0.11-0.64,0.38-1.06,0.73
						c0.85-0.85,1.97-1.93,2.66-2.52c0.68-0.62,0.99-0.68,0.57-0.04c-0.36,0.38-0.95,0.88-1.54,1.38c-0.58,0.49-1.16,0.99-1.41,1.21
						c0.46-0.41,0.56-0.18,0.22,0.17c-0.19,0.09-0.39,0.2-0.59,0.33c-0.33,0.37,0.06,0.12,0.32,0.03c0.27-0.11,0.38-0.05-0.27,0.59
						c-0.07,0.11-0.49,0.47-0.8,0.72c-0.31,0.25-0.51,0.4-0.17,0.23c0.8-0.52,2.13-1.39,3.43-2.24c0.17-0.11,0.33-0.21,0.5-0.32
						c0.12-0.07,0.24-0.15,0.35-0.22c0.11-0.06,0.22-0.12,0.32-0.16c0.19-0.09,0.35-0.13,0.45-0.1c0,0.07-0.19,0.47-0.37,1.03
						c-0.15,0.56-0.52,1.16-0.83,1.41c-0.46,0.37-1.02,0.34-1.51,0.36c-0.5,0.01-1.02,0.11-1.46,0.39c0.29-0.1,0.6-0.04,0.69,0.01
						c-0.3,0.29-0.87,0.18-0.84,0.56c1.02-0.13-0.27,0.95,0.83,0.06c0.19,0.49-0.32,0.56-0.38,1.12c0.67-0.21,2.03,1.06,2.2,1.83
						c-0.24-0.08-0.59,0.05-0.75,0.11c-0.26,1.5-0.78,2.28-0.87,3.7c-0.25,0.12-0.58,0.79-0.98,0.48c0.16,0.22,0.49,0.42,0.49,0.86
						c-0.88,0.82-0.09-0.99-1.14-0.39c0.57,0.08,0.74,1.18,1.07,1.82c0.88-0.16,0.23-1.44-0.1-2.09c1.22,0.07,2.43,1.2,2.95,2.67
						c0.27,1.17-0.8,0.48-0.63,0.69c-0.26,2.2,2.09,1.9,1.18,3.72c-0.78,0.72-1.54,0.01-2.1,0.16c-0.28-0.96,0.51-1.46,0.49-2.11
						l-0.38,0.79c-0.25-0.31-0.44-0.95-0.21-1.29c-0.71,0.6-0.18,3.73-0.87,5.41c0.25,0.31,0.5,0.84,0.82,0.6l-0.09-0.54
						c0.64-0.48,0.83,1.05,1.14,0.37c0.41,0.74,1.08,1.6,0.65,2.64l-0.89,0.14c0.26,0,0.57-0.65,0.32-0.95
						c0.38,0.45-1.33,1.58-0.13,1.88c0.18-0.21,0.39-0.34,0.61-0.5c0.41,0.47,1.42,1.06,1.25,1.65c0.81-0.43-0.12-0.14,0.81-0.68
						c-0.3,0.12-0.46,0.11-0.56,0.01c-0.08-0.11-0.09-0.31-0.1-0.49c-0.03-0.32,0-0.36-0.68-0.29c0.15-0.07,0.27,0.02,0.37-0.09
						c0.1-0.07,0.18-0.15,0.25-0.22c0.13-0.15,0.2-0.3,0.26-0.46c0.12-0.32,0.24-0.68,0.75-1.1c-0.29,0.01-0.57,0.29-0.39-0.49
						c-0.08-0.04-0.19-0.13-0.25-0.18c0.01-0.02,0.01-0.03,0.02-0.05l-0.04,0.04c-0.04-0.04-0.05-0.04-0.01,0.02
						c-0.13,0.18-0.29,0.33-0.46,0.38c-0.65-0.42-0.58-1.65-0.92-2.07c0.15-0.45,0.33,0.2,0.65-0.04l-0.5-0.63
						c0.65-0.05,1.1-1.19,1.46-0.11l0.05-0.97c0.37-0.56,0.53-1.33,0.26-1.81c0.15-0.44-0.7-1.13-0.2-0.74l-0.37-1.48l0.16-0.01
						c0.12-1.43-1-3.02,0.28-4.55c-0.12-0.48-0.31-0.99-0.04-1.74l0.57-0.1c-0.07-0.3,0.12-0.73,0.25-1.12
						c0.14-0.38,0.24-0.71-0.03-0.88c0.39-0.1,0.64-0.32,0.78-0.6c0.16-0.52,0.43-1.33,0.57-2.08c0.07-0.38,0.15-0.76,0.22-1.15
						c0.03-0.19,0.07-0.37,0.1-0.56l0.05-0.27c0.01-0.04,0.02-0.09,0.02-0.13l-0.08-0.08c-0.44-0.41-0.8-0.79-1.02-1.11l-0.63,0.16
						c-0.74-0.93-0.93-1.31-1.25-2.01l-0.21,0.19c-0.03-0.07-0.06-0.15-0.07-0.24c0.01-0.08,0.03-0.17,0.05-0.27
						c0.05-0.2,0.1-0.41,0.15-0.64c0.05-0.45,0.32-0.94,0.54-1.41c-0.02,0.06-0.13,0.29-0.22,0.47c0.16-0.3,0.28-0.58,0.41-0.87
						c0.17-0.3,0.46-0.64,0.69-0.96c0.26-0.3,0.42-0.73,0.84-0.78c0.37-0.09,0.75-0.12,1.1-0.05c0.35,0.06,0.59,0.15,0.81,0.25
						c-0.03-0.01-0.05-0.02-0.08-0.03c0.03,0.01,0.08,0.03,0.13,0.06c0.14,0.07,0.28,0.15,0.43,0.24c-0.12-0.08-0.25-0.14-0.36-0.21
						c0.24,0.13,0.6,0.34,0.88,0.63c0.04,0.04,0.08,0.08,0.12,0.13c0.02,0.03,0.04,0.05,0.06,0.07c0.25,0.31,0.19,0.26,0.07,0.08
						c0.12,0.16,0.22,0.33,0.28,0.46c0.07,0.15,0.16,0.4,0.16,0.68c0,0.28-0.07,0.57-0.19,0.76c0.02,0.26-0.53,0.24-1.02,0.3
						c-0.41,0.04-0.75,0.08-1.1,0.12c-0.01,0-0.13,0.01,0.08-0.01c-0.45,0.05-0.84,0.09-1.3,0.14c-0.07,0.01-0.11,0-0.16,0
						c-0.27-0.02-0.56-0.01-0.89,0.02c-0.49-0.03-0.61-0.12-0.07-0.13c-0.62-0.01-0.89,0-1.13,0c-0.12,0-0.23,0.01-0.4,0.02
						c-0.04,0-0.09,0.01-0.13,0.01l-0.08,0.01l-0.04,0.01c0-0.01,0.04-0.06,0.05-0.09c0.17-0.26,0.32-0.53,0.39-0.74l0.38-0.3
						c0.17-0.23,0.33-0.47,0.47-0.69c-0.81,0.27-1.88,0.8-1.79,0.41c-0.12-0.53-1.89-0.39-3.86-0.28c-1,0.06-2.06,0.13-3.11,0.13
						l-0.4-0.01l-0.27-0.02c-0.18-0.02-0.35-0.04-0.52-0.07c-0.34-0.06-0.68-0.14-0.99-0.25c0.55,1.65-1.17-0.69-1.22,0.6
						c-0.16-0.39-0.51-0.61-0.12-0.96c-1.24,0.42-1.88-0.58-2.72,0.54c-0.15-0.39,0.26-0.59,0.13-0.82
						c-0.1,0.09-0.39,0.36-0.52,0.12c-0.13-0.24,0.18-0.33,0.37-0.51c-1.26,0.08-1.38,1.3-1.47,2.45c-0.65-0.54-0.97-0.47-1.45,0.29
						c-0.23-0.37-0.6-0.77,0.2-0.9c-0.45-0.03-2.71-0.6-2.79,0.32c-0.13-0.24-0.62-0.08-0.75,0.02c-1-0.07-1.08-0.19-2.07-0.15
						l0.26,0.17c-0.45,1.09-0.84,0.2-1.64,0.29l0.03-0.11c-1.76-0.92-0.82,0.32-2.53-0.75l0.03,0.7c-0.32,1.46-1.51-1-2.59-0.6
						l0.32,0.44c-0.64,0.43-1.31-2.21-1.83-2.47c-0.1-0.14,0.22-0.18,0.4-0.25c-1.31-1.06-0.32,0.88-1.43,0.91
						c-0.12-0.52,0.45-1.18-0.25-1.4c-0.27-0.46-2.38,1.22-3.17,0.05c0.13,0.42,0.27,0.83-0.28,1c-0.8-0.06-1.73-1.81-2.68-0.88
						c-0.07-0.13-0.08-0.23-0.06-0.32c-0.65,0.14-1.99-0.03-2.53,0.49c0.08-1.22-0.86-1.24-1.77-1.22
						c-0.91,0.03-1.78,0.07-1.37-0.97c-0.69-0.24-0.82-0.25-1.19-0.35l0.16-0.18c-0.51-0.26-0.84-0.2-1.43-0.12
						c0.05-0.25,0.28-0.25,0.38-0.31c0.01-1.02-0.14-1.35-1.64-2.29l0.65-0.35c-0.25-0.12-0.13-0.78-0.1-1.54
						c0.04-0.77,0.08-1.66-0.48-2.38c0.08,0,0.22,0.02,0.34,0.12c-0.51-0.83-0.19-1.96,0.07-2.88c0.21-0.93,0.27-1.68-1.01-2.03
						l-0.62-1.24c-0.24,1.6-1.12-0.29-1.57,0.36c-0.15-0.67,0.9-1.63,0.96-0.83l-0.14,0.11c1.33,0.37,0.63-1.96,1.56-1.81
						c0.3-3.11,1.78-5.88,2.79-8.56l-1.11-0.03l0.41-0.95c0.32-0.17,0.89-0.05,0.61,0.61c0.69-0.15-0.05-1.32-0.26-1.43
						c0.95-1.16,0.93,0.96,1.13,0.57c0.04-0.19,0.1-0.38,0.15-0.57l-0.17,0.08c-0.22-0.6-0.62-0.82-0.23-1.61
						c0.41-0.43,0.7,0,0.83-0.19c0.07,0.03,0.13-0.02,0.17-0.29l0.63-1.12l-0.97,0.11c-0.13-0.7,0.56-1.09-0.54-0.95
						c0.83-0.1,1.52-1.1,2.07-2.14c0.59-1.01,1.04-2.07,1.39-2.17c-0.08-1,0.34-1.7,0.97-2.48c-0.28,0.11-1.15-0.28-0.56-0.94
						c1.41,1.35,1.58-0.84,3.13-0.57c-1.12-0.06,1.27-2.07-0.35-2.1c0.57-0.47,0.6,0.41,1.29,0.26c0.46-1.82,2.75-2.56,3.97-4.24
						c-0.16-0.2-0.68-0.21-0.65-0.8l1.68,0.1c0.2-0.38-0.76-1.3,0.39-1.22c-0.22-0.08-0.56-0.19-0.42-0.45
						c1.92-0.98,3.28-2.57,4.88-3.95c1.58-1.38,3.35-2.64,5.7-2.69c-0.72-0.13-0.44-0.36-0.09-0.6c-0.3,0.05-0.32-0.54-0.54-0.8
						c0.65-0.05,1.33-0.04,1.98-0.04c-0.19-1.01,1.59-0.92,1.34-1.81l-0.42,0.39c0.19-1.3-2.03-1.66-2.6-2.89
						c-0.1,0.75-0.81,0.64-1.59,0.63c-0.76-0.01-1.56,0.13-1.72,1.25c-0.43-0.07,0-0.52-0.32-0.7c-0.01,0.69-0.3,1.04-1.13,1.29
						l0-0.17c-1.85,1.43-2.97,1.57-5.28,2.93l0.59,0.4c-0.5,0.28-0.71,0.21-1.03,0.25c0.17,1.2,1.24-0.98,1.53,0.28
						c-0.74-0.31-1.48,0.35-2.23,0.95c-0.74,0.61-1.44,1.22-2.17,0.82c-0.64,0.59,0.73,0.4,0.09,0.98l-0.46-0.15l0.23,0.55
						c-0.46,0.34-1.04,0.16-1.31-0.08c0.13-0.07,0.21-0.35,0.29-0.48c-0.88,0.18-1.36,1.61-1.64,1.69c0.25-0.15,0.51-0.29,0.77-0.43
						c-1.35,1.98-3.7,3.82-4.41,6.17l0.36,0.06c-0.57,1.74-1.13,0.89-2.02,2.6l-0.02-0.1c0.05,0.5-0.1,1.01-0.43,1.42
						c-0.04-0.61-1.12,0.34-1.11-0.41c-0.51,1.94-0.09,1.07,0.26,2.75l-0.61-0.04c0.19,0.61,0.38,0.77,0.04,1.65
						c-0.01-0.9-1,0.12-1.09-0.95c-2.04,1.17-0.4,3.16-2.34,3.19c0.9,1.48,1.53-1.16,1.57-0.56c0.62-0.15,0.63,1.18,0.22,1.65
						c-0.31,0.54-2.16,0.14-2.83,1.63c0.07-0.14-0.02-0.2,0.05-0.34c-0.61,0.4,0,1.3-0.86,1.75c0.67,0.72-0.42,0.88,0.61,1.41
						c0.09-0.49,0.21-0.97,0.31-1.47c-0.06,0.89,0.91,2.08-0.15,3.14c-0.18-0.17-0.33-0.66-0.39-0.98c-0.45,0.27-0.05,0.8-0.52,1.08
						c-1.03-0.48,0.36-1.78-0.1-2.94c-0.64,0.23,0.16,1.91-0.84,1.04c1.26,1.16-0.77,1.46,0.06,2.91l-0.63-0.28
						c0.05,0.2,0.25,0.65,0.14,0.95l-0.67-0.82c0.44,1.08-1.14,1.51-0.96,2.49c0.44-1.8,0.9-0.19,1.57-0.81
						c0.36,2.38-2.1,0.79-2.29,3.41c-0.03-0.37,0.66-1.2,0.86-0.6c-0.23,0.45-0.62,1.03-1.03,1.26c-0.12,1.72,0.73-0.14,1.03,0.64
						c-0.9,0.44,0.22,0.88,0.38,1.62l-0.69-0.08c-0.66,1.86,1.38,0.65,0.69,2.29l-0.9-0.8l0.18,0.92l-0.77-0.24
						c0.49,1.03,0.37,1.32,0.12,2.3c0.5-0.22,1.25,0.14,1.27,0.97c-0.39,0.58-0.68-0.31-0.52,0.89c-0.44-0.25-1.01-0.55-0.38-1.09
						c-0.23-0.05-0.43-0.27-0.65-0.33c-0.5,0.65-0.05,1.63-0.04,2.07c0.02-0.18,0.04-0.38,0.14-0.49c0.36,0.58,0.67,1.15,1.08,1.71
						c-0.23,0.3-0.46,0.1-0.69-0.1c0.12,0.35,0.46,0.57,0.58,1.08c-0.58-0.07-1.15,0.04-1.5-0.71l0.82,1.65
						c-0.24,0.15-0.51,0.99-0.76,0.8c-0.07,0.51,0.31,1.06,0.68,1.63c0.39,0.57,0.82,1.15,0.77,1.82c0.12,0.03,0.26,0.14,0.41,0.37
						c0.09,0.6,0.11,1.19,0.22,1.79c0.06,0.31,0.13,0.56,0.31,0.96c0.22,0.41,0.53,0.85,0.9,1.23c-0.13,0.54-0.24,1.12-0.34,1.74
						c0.46,0.76,0.52,0.12,0.69-0.35c0.16-0.48,0.42-0.78,1.08,0.25c0.03,0.04,0.06,0.09,0.08,0.13c0.05,0.02,0.1,0.03,0.14,0.04
						c0.09,0.03,0.17,0.06,0.23,0.08c0.13,0.06,0.21,0.11,0.26,0.17c0.1,0.12,0.06,0.24-0.02,0.36c-0.17,0.25-0.54,0.49-0.3,0.74
						c0.63-0.01,1.48-0.09,2.26-0.01c0.2,0.02,0.39,0.05,0.58,0.1c0.17,0.04,0.27,0.06,0.4,0.12c0.25,0.11,0.47,0.3,0.67,0.59
						C168.4,269.2,168.18,268.94,167.83,268.88z M180.3,271.88c-0.27,0.1-0.84,0.46-0.94,0.02
						C179.79,271.17,179.93,271.58,180.3,271.88z M199.32,271.64c-0.17,0.23-0.45,0.12-0.76-0.15
						C198.78,271.43,199.04,271.46,199.32,271.64z M214.27,289.44c-0.01-0.01-0.02-0.02-0.03-0.03
						C214.52,288.89,214.41,289.08,214.27,289.44z M213.95,290.54c0.09,0.11,0.19,0.11,0.29,0.06c-0.17-0.08-0.18-0.33-0.13-0.61
						C213.93,290.07,213.8,290.2,213.95,290.54z M170.43,235.16l-0.25,0.11C170.18,234.77,170.3,234.96,170.43,235.16z"/>
					<path d="M197.19,272.59c-0.07-0.12-0.09-0.25-0.1-0.38C197,272.33,196.99,272.46,197.19,272.59z"/>
					<path d="M161.25,260.89c0-0.02,0-0.03,0-0.04c-0.05-0.01-0.09-0.01-0.13-0.01L161.25,260.89z"/>
					<path d="M209.17,274.57c0.14-0.14,0.29-0.25,0.45-0.35C209.44,274.29,209.27,274.4,209.17,274.57z"/>
					<path d="M214.91,296.26c-0.03-0.01-0.06-0.09-0.09-0.05c-0.03-0.07-0.05-0.24-0.07-0.35c0.01,0.16-0.04,0.36-0.08,0.34
						c-0.05-0.03-0.11,0.03-0.17,0.04C214.66,296.24,214.9,296.21,214.91,296.26z"/>
					<path d="M212.8,301.82c0.13,0.01,0.17,0.14,0.3,0.14l0.19-0.26C212.97,301.45,212.56,301.42,212.8,301.82z"/>
					<path d="M212.63,296.76c-0.58,0.09-0.37,0.47-0.17,0.84c-0.01-0.02-0.02-0.05-0.01-0.07
						C213.28,297.49,212.91,297.18,212.63,296.76z"/>
					<path d="M212.5,297.69c0.05,0.12,0.08,0.24,0.08,0.36C212.9,298.01,212.61,297.89,212.5,297.69z"/>
					<path d="M214.31,291.96c-0.16,0.23,0.74,0.17,0.5,0.3C215.55,292.54,213.95,290.65,214.31,291.96z"/>
					<polygon points="210.74,297.32 211.45,297.07 210.85,296.86 					"/>
					<path d="M211.35,293.47l-0.23,0.78c0.12-0.01,0.19,0.1,0.24,0.22C211.4,293.99,211.56,293.46,211.35,293.47z"/>
					<path d="M211.36,294.47c-0.03,0.25-0.03,0.49,0.08,0.64C211.44,294.98,211.43,294.68,211.36,294.47z"/>
					<path d="M210.45,296.25c0.05-0.08,0.11-0.16,0.16-0.23l0.09-0.55L210.45,296.25z"/>
					<path d="M211.67,285.04l-0.18-0.86c-0.24-0.1-0.41,0.13-0.31,0.45C211.34,284.85,211.43,285.16,211.67,285.04z"/>
					<path d="M209.64,287.59c0.15-0.23,0.31-0.24,0.55-0.37l-0.89-0.04L209.64,287.59z"/>
					<path d="M209.48,285.07c-0.25-0.09-0.68-1.28-0.65-0.18C209.07,284.99,209.26,285.86,209.48,285.07z"/>
					<polygon points="212.16,272.57 212.12,272.76 213.29,272.22 212.81,272.34 212.57,272.41 					"/>
					<path d="M210.19,272.76c-1.04,0.4,2.06-1.59,0.76-1.03c0.68-0.67,1.08-0.46,1.68-1.02
						C212.02,271.51,212.55,271.27,210.19,272.76z"/>
					<path d="M212.62,270.71c0.09-0.13,0.21-0.28,0.37-0.47C212.87,270.44,212.74,270.59,212.62,270.71z"/>
					<polygon points="196.09,208.42 196.76,208.42 196.19,208.16 					"/>
					<path d="M196.64,206.92l0.54,0.78l-0.04-0.93C197.03,206.87,196.83,207.07,196.64,206.92z"/>
					<path d="M181.87,274.06l0.09-0.21c-0.07-0.26-0.22-0.3-0.54-0.4L181.87,274.06z"/>
					<polygon points="172.8,271.34 172.95,271.41 172.9,270.51 					"/>
					<path d="M163.1,268.91c0.53,0.26,1.29,0.37,1.82,0.63C163.6,269.15,163.72,268.02,163.1,268.91z"/>
				</g>
			</g>
		</g>
	</g>
</g>
<g>
	<g>
		<g>
			<g>
				<g>
					<path d="M272.95,319.32c-0.24,0.02,0,0.57-0.01,0.69C273.29,319.77,272.9,319.17,272.95,319.32z"/>
					<polygon points="276.26,316.91 276.28,317.16 276.62,316.4 					"/>
					<path d="M279.66,315.71c-0.69-0.84-1.17,0.59-1.9,0.47l-0.18-0.19l0,0.88C278.28,316.48,279.04,315.62,279.66,315.71z"/>
					<path d="M282.33,316.99c-0.27-0.32,0.26-0.49-0.48,0.07c0.06,0.02,0.08,0.04,0.12,0.06
						C282.03,317.08,282.14,317.04,282.33,316.99z"/>
					<path d="M281.96,317.12C281.61,317.3,282.33,317.33,281.96,317.12L281.96,317.12z"/>
					<path d="M283.55,316.19l-0.33,0.53c0.2,0.17,0.65,0.03,0.56,0.26C284.2,316.58,284,316.42,283.55,316.19z"/>
					<path d="M283.68,315.3l-0.18,0.26C283.59,315.63,283.67,315.62,283.68,315.3z"/>
					<path d="M283.12,316.07l0.39-0.51c-0.14-0.12-0.29-0.42-0.19,0.21C283.23,315.47,283.25,315.78,283.12,316.07z"/>
					<path d="M282.76,316.06c-0.36-0.09-0.76-0.07-0.43-0.6C281.49,315.97,281.9,316.58,282.76,316.06z"/>
					<path d="M279.44,314.65l-0.45-0.15l-0.18,0.43C278.9,314.71,279.59,314.95,279.44,314.65z"/>
					<path d="M286.76,315.16c-0.08-0.21-0.44-0.43-0.61-0.66l-0.23,0.4C286.17,314.94,286.58,314.89,286.76,315.16z"/>
					<path d="M286.15,314.5c0.11-0.2,0.23-0.39,0.33-0.6C286,314.11,286,314.31,286.15,314.5z"/>
					<path d="M283.27,314.23c-0.16,0.39-0.33,0.74-0.51,1.1c0.23-0.38,0.45-0.78,0.66-1.19L283.27,314.23z"/>
					<polygon points="288.75,314 288.73,314.61 288.84,313.64 					"/>
					<path d="M290,313.08c0.02,0.5,0.7,0.37,0.62,0.75c0.31-0.32,0.4-0.84,0.48-1.29C290.92,312.89,290.58,313.08,290,313.08z"/>
					<path d="M291.25,311.83c-0.08,0.18-0.11,0.43-0.16,0.7C291.19,312.35,291.25,312.13,291.25,311.83z"/>
					<path d="M287.39,313.48c0.11,0.09,0.36,0.34,0.72,0.29l-0.52-0.4C287.53,313.4,287.46,313.44,287.39,313.48z"/>
					<path d="M287.57,313.35l0.02,0.01c0.22-0.12,0.38-0.2,0.44-0.23C287.98,313.16,287.84,313.22,287.57,313.35z"/>
					<path d="M287.34,313.5c0.02-0.01,0.03-0.02,0.05-0.03C287.34,313.44,287.32,313.43,287.34,313.5z"/>
					<path d="M284.84,314.05c0.14-0.46,0.57-1.09-0.26-1.26C284.57,313.27,285.05,313.36,284.84,314.05z"/>
					<path d="M286.7,312.99l-0.59,0.2c0.09,0.14,0.3,0.28,0.24,0.52L286.7,312.99z"/>
					<polygon points="286.86,312.67 286.7,312.99 286.92,312.92 					"/>
					<path d="M290.01,312.03c0.07-0.38,0.29-0.58,0.54-0.82c-0.37,0.12-0.7,0.29-0.99,0.5
						C289.64,311.91,289.71,312.28,290.01,312.03z"/>
					<path d="M288.81,312.67l0.03-0.06C288.78,312.59,288.75,312.59,288.81,312.67z"/>
					<path d="M293.14,309.02c-0.04-0.01-0.08-0.03-0.12-0.04l0.06,0.08L293.14,309.02z"/>
					<path d="M289.45,311.66c-0.29,0.06-0.33,0.28-0.35,0.53c0.13-0.17,0.28-0.33,0.46-0.47
						C289.53,311.64,289.5,311.59,289.45,311.66z"/>
					<path d="M291.83,311.03c-0.19,0.01-0.4,0.01-0.59,0.04C291.47,311.13,291.9,311.19,291.83,311.03z"/>
					<path d="M289.01,312.7c-0.01,0.02-0.01,0.03-0.02,0.04C289.14,312.81,289.1,312.76,289.01,312.7z"/>
					<path d="M289.01,312.7c0.07-0.15,0.08-0.33,0.09-0.51c-0.1,0.14-0.2,0.27-0.26,0.42C288.89,312.63,288.96,312.67,289.01,312.7z
						"/>
					<path d="M290.98,305.56c0.4,0.41,0.34,1.29-0.51,1.21c-0.11,0.67,1.41,1.83,2.55,2.21c-0.17-0.2-0.3-0.33-0.11-1.04
						c-0.36-0.02-1.5,0.41-1.48-0.3c0.38-0.73,0.6-0.3,1.09-0.38c-0.73-0.25-0.09-1.45-0.99-2.01l-0.16,0.73
						C291.24,305.88,291.21,305.53,290.98,305.56z"/>
					<path d="M292.08,309.75l-0.15,0.23c0.29-0.13,0.6-0.1,1.21-0.05c0.14-0.51,0.06-0.72-0.05-0.87l-1.02,0.82L292.08,309.75z"/>
					<path d="M291.04,310.74c-0.21-0.59,0.06-1.2-0.64-1.47c-0.54,0.48-0.08,0.71-0.26,1.19c0.86-0.83-0.07,0.48,0.85,0.24
						c-0.13,0.23-0.28,0.38-0.43,0.52c0.22-0.07,0.45-0.13,0.68-0.16c-0.02-0.01-0.03-0.01-0.05-0.01l0,0.01l-0.01-0.01
						c-0.09-0.03-0.13-0.06-0.06-0.06c0-0.01,0.01-0.02,0.01-0.03C291.09,310.89,291.06,310.82,291.04,310.74
						c0.37-0.11,0.15,0.09,0.1,0.22c0.02,0.03,0.03,0.05,0.05,0.08l0.01,0c0.27-0.32,0.5-0.71,0.74-1.07
						C291.67,310.08,291.45,310.35,291.04,310.74z"/>
					<path d="M284.48,311.34c0.06,0.03,0.08,0.07,0.1,0.11C284.61,311.36,284.6,311.3,284.48,311.34z"/>
					<path d="M285.06,311.46c-0.03,0.12,0.03,0.36-0.23,0.43c-0.29-0.06-0.14-0.26-0.25-0.43c-0.06,0.22-0.28,0.64,0.31,0.68
						l0.03-0.11c0.51,0,1.39,0.33,1.37,0.45C285.89,312.06,285.59,311.78,285.06,311.46z"/>
					<path d="M287.94,311.11c0.22-0.24,0.41-0.54,0.61-0.81l-0.7-0.15l0.2,0.25C287.56,310.62,287.86,310.86,287.94,311.11z"/>
					<path d="M293.45,309.16l0.35,0.56c-0.06-0.36-0.13-0.72-0.21-1.09C293.54,308.81,293.5,308.99,293.45,309.16z"/>
					<polygon points="294.34,308.07 294.73,308.49 294.73,307.98 					"/>
					<path d="M262.33,270.49l0.18-0.34C262.39,270.31,262.34,270.42,262.33,270.49z"/>
					<path d="M259.49,272.61l0.39,0.05C259.77,272.57,259.65,272.52,259.49,272.61z"/>
					<path d="M286.13,278.97c-0.13-0.67-0.21-1.65-0.44-1.05l-0.16,0.62C285.84,278.59,286.02,278.76,286.13,278.97z"/>
					<path d="M264.99,277.72c-0.07,0.07-0.15,0.14-0.22,0.21c0.44-0.21,0.85-0.4,1.22-0.58
						C265.69,277.46,265.35,277.58,264.99,277.72z"/>
					<path d="M259.78,280.57c-0.05-0.14-0.08-0.28-0.1-0.41C259.59,280.3,259.61,280.44,259.78,280.57z"/>
					<path d="M270.65,261.1l-0.32-0.62C270.05,260.84,270.43,260.88,270.65,261.1z"/>
					<path d="M298.57,293.88c0.14-0.46,0.15-0.83,0.1-1.14C298.46,293.35,298.03,293.85,298.57,293.88z"/>
					<path d="M270.21,272.37c-0.09-0.06-0.23-0.11-0.41-0.13C269.88,272.31,270,272.36,270.21,272.37z"/>
					<path d="M298.32,291.53c-0.03,0.09-0.03,0.17-0.06,0.26c0.18,0.27,0.35,0.56,0.41,0.96
						C298.83,292.31,298.89,291.78,298.32,291.53z"/>
					<path d="M280.04,229.04c0.02-0.03,0.03-0.06,0.05-0.1C280.01,228.97,280.01,229,280.04,229.04z"/>
					<path d="M280.03,216.52c0.11,0.07,0.23,0.22,0.36,0.35C280.36,216.78,280.26,216.66,280.03,216.52z"/>
					<path d="M297.84,303.34C297.74,303.65,297.88,303.42,297.84,303.34L297.84,303.34z"/>
					<path d="M294.98,303.51c-0.03-0.09-0.09-0.17-0.21-0.25C294.89,303.35,294.95,303.44,294.98,303.51z"/>
					<path d="M293.61,290.56l-0.01-0.02C293.53,290.66,293.54,290.64,293.61,290.56z"/>
					<path d="M297.37,303.65c0.12-0.07,0.24-0.17,0.35-0.28C297.65,303.4,297.54,303.49,297.37,303.65z"/>
					<path d="M297.66,303.72c-0.07,0.09-0.13,0.16-0.18,0.22C297.56,304.03,297.63,304.02,297.66,303.72z"/>
					<path d="M298.01,302.93c-0.07,0.17-0.17,0.31-0.29,0.44c0.07-0.04,0.11-0.05,0.12-0.02
						C297.88,303.25,297.93,303.13,298.01,302.93z"/>
					<path d="M280.76,247.54c0.02-0.01,0.04-0.02,0.07-0.03C280.67,247.2,280.67,247.31,280.76,247.54z"/>
					<path d="M277.55,282.4c0.01,0,0.02-0.02,0.03-0.02l-0.03-0.03L277.55,282.4z"/>
					<path d="M276.62,282.62c0.56-0.65,0.73-0.5,0.94-0.26l0.26-1.8C277.41,281.24,277.01,281.93,276.62,282.62z"/>
					<path d="M267.35,265.64l-0.82,0.04c-0.17-1.16,0.41-1.3-0.54-1.45c0.34,0.35,0.42,0.64,0.37,0.89
						c-0.03,0.13-0.08,0.25-0.16,0.36l-0.12,0.17l-0.07,0.09l-0.16,0.18c-0.77,0.84-1.59,1.61-0.73,2.16l-0.9,0.27
						c0.17-0.13,0.08-0.21,0.25-0.34c-0.97,0.25-0.84,0.62-0.6,0.99c0.21,0.39,0.61,0.8-0.22,1.27c-0.63,0.32-1.35,0.53-1.31,0.2
						c-0.17,0.34-0.32,0.66-0.44,0.96c-0.36,0.24-0.78,0.14-0.4-0.11c-0.5,0.45-0.92,0.89-1.52,1.34l-0.08-0.01
						c0.22,0.2,0.47,0.58,0.6,0.74c-0.96,0.34-0.17-0.13-0.73-0.03c-0.04,0.22-0.05,0.42-0.04,0.61c-0.7,0.18-1.12,0.17-1.22,0.03
						c-0.11-0.14,0.11-0.41,0.55-0.67c-2.31,0.44-2.41,0.64-2.35,0.87c0.01,0.25,0.28,0.47-2.26,1.49l0.64-0.71
						c-1.59,0.41-2.49,0.79-3.34,1.21c-0.87,0.42-1.69,0.88-3.41,1.6c0.68-0.23,2.6-0.97,4.17-1.48c1.59-0.52,2.86-0.82,2.83-0.5
						c-0.69,0.29-1.39,0.67-1,0.89c-1.84,0.38-2.1,0.77-2.82,1.29l-2.6,0.6c-0.26,0.49,1.24,0.07,1.98,0.08
						c-1.24,0.71-3.79,1.52-6.06,2.28c-0.61,0.35-0.57,0.39-0.22,0.29c0.35-0.1,1-0.34,1.68-0.59c1.38-0.51,2.72-0.94,2.14-0.46
						c-2.12,1.01-2.15,1.32-1.58,1.47c0.33-0.06,0.86-0.19,1.3-0.29c-0.22,0.33-2.26,0.73-2.89,1.05l3.56-1
						c0.14,0.01-0.73,0.3-1.17,0.45c1.73-0.41,3.35-1.17,5.2-1.56c1.86-0.65,1.04-0.21,0.56,0.18c-0.5,0.39-0.61,0.73,1.76,0
						c-0.39,0.3-1.77,0.69-2.68,1.12c2.16-0.53,2.91-0.71,3.73-0.93c0.8-0.22,1.67-0.48,3.53-1.1c-0.07,0.21-0.1,0.42-0.07,0.62
						c0.23-0.36,1.15-0.8,2.18-1.23c1.04-0.44,2.19-0.85,3.12-1.21c0.23-0.2,0.32-0.31,0.45-0.44c0.11-0.11,0.2-0.21,0.27-0.28
						c0.55-0.13,1.07-0.26,1.56-0.4c-0.11,0.14-0.6,0.41-1.28,0.74c0.17-0.07,0.33-0.13,0.47-0.19c-0.08,0.17-0.25,0.32-0.69,0.58
						c-0.42,0.25-0.97,0.53-1.56,0.81c0.15-0.2,0.34-0.41,0.56-0.62c-1.26,0.6-2.8,1.3-3.76,1.89c0.31-0.12,0.68-0.23,0.98-0.29
						c-0.38,0.17-0.7,0.32-0.82,0.42c-0.12,0.1,0.43-0.13,1.1-0.39c-0.48,0.37-0.94,0.73-1.38,1.09l0.78-0.44
						c0.4,0.2,0.87,0.39,1.43,0.57c0.78-0.28,1.54-0.59,2.24-0.89c0.62-0.26,1.25-0.53,1.89-0.8c1.19-0.51,2.18-0.93,3.06-1.06
						c-0.82,0.69-0.8,1.18-1.3,2.04c-0.03-0.47-0.46-0.4-1.09-0.24c-0.62,0.16-1.46,0.41-1.97,0.29c0.52,0.13,0.01,0.54-0.3,0.68
						c1.03-0.25,1.98-0.49,2.85-0.73c-0.51,0.7,0.11,0.55,0.55,0.87c0.34-1.43,1.96-0.79,2.78-1.07c-0.05,0.49-0.32,0.92-1.31,0.68
						c0.4,0.58,0.9,0.26,1.31-0.13c0.41-0.38,0.64-0.82,0.94-0.3c-0.16-0.01-0.24-0.1-0.34,0.13c0.45-0.38,1.3,0.13,1,0.51
						l-0.16-0.03c1,0.39,3.12,0.71,3.6-0.38c-0.03,0.16-0.53,1.38-0.66,1.6c0.96-1.15,1.98-2.28,3.06-3.4
						c-0.48,0.96-0.66,3.51-1.67,3.83c0.2,0.21,0.43,0.46,1.03,0.3c-0.1-0.2,0.09-1.59,0.35-1.59c0.22,1.33,0.23,0.75,0.61,1.95
						c-0.16-0.3,0.69-1.74,1.07-1.55c-0.15,0.21-0.57,1.53-0.77,1.64c0.51-0.4,1.02-0.76,1.54-1.11c-0.35,0.16-0.57,1.25-0.56,1.75
						c0.03-0.33,0.76,0.37,1.06,0.33l-0.22-0.51c0.91,0.66,2-1.57,3.03-0.93c-0.29,0.22-1.28,1.65-0.89,2.09
						c0.31-0.29,1.07-1.05,1.9-1.66c0.84-0.62,1.79-1.14,2.45-1.09l-0.08,0.51c0.35,0,0.68,0.02,1.02,0.06
						c-0.58,0.32-1.54,0.84-2.5,1.36c-0.95,0.51-1.85,1.01-2.4,1.27c0.15,0.54-0.19,0.54,0.34,0.83c-0.06,0.49-0.63,0.4-0.78,0.33
						l0.98,0.97c0.24-0.42,0.61-0.49,0.95-0.51c0.34-0.02,0.67-0.02,0.89-0.36c-0.59-0.06-1.22-0.05-1.82-0.03
						c0.44-0.85,2.3-1.84,3.06-1c-0.02,0.47-1.2,1.25-1.37,1.52c0.3-0.19,1.15,0.07,1.07,0.31l-0.66,0.15
						c0.2,0.59,1.52-0.4,1.4,0.73c0.13,0.21-0.38,1.34,0.05,0.96c0.52-1.01,2.79-3.57,3.6-3.95c0.06,0.1,0.25,1.81,0.02,2.37
						c-0.39,0.86-1.96,0.91-2.28,1.66c0.21-0.17,0.59-0.23,0.73-0.23c-0.01,0.33-0.69,0.46-0.25,0.76c0.83-0.56,0.55,0.9,0.8-0.33
						c0.53,0.25,0.16,0.57,0.55,1.03c0.4-0.53,2.14-0.75,2.66-0.33c-0.23,0.09-0.45,0.37-0.55,0.5c0.25,0.53,0.36,0.98,0.38,1.44
						c0.04,0.45,0.13,0.86,0.26,1.36c-0.2,0.17-0.36,0.71-0.82,0.63c0.2,0.09,0.56,0.13,0.66,0.43c-0.68,0.74-0.3-0.62-1.18,0.05
						c0.57-0.11,0.97,0.54,1.34,0.94c0.43-0.12,0.44-0.4,0.3-0.68c-0.19-0.27-0.53-0.54-0.76-0.7c1.15-0.33,2.69,0.16,3.35,1.47
						c0.41,1.03-0.74,0.49-0.55,0.66c-0.11,0.94,0.38,1.36,0.82,1.79c0.45,0.42,0.7,0.85,0.12,1.62c-0.88,0.49-1.51-0.31-2.08-0.28
						c-0.16-0.8,0.75-1.07,0.71-1.63c-0.14,0.21-0.25,0.42-0.42,0.61c-0.18-0.28-0.4-0.78-0.16-1.05c-0.18,0.11-0.28,0.35-0.35,0.65
						c-0.08,0.3-0.19,0.67-0.27,1.07c-0.12,0.81-0.54,1.66-1.02,2.14c0.17,0.31,0.2,0.78,0.58,0.74c0.03-0.14,0.08-0.28,0.08-0.43
						c0.35-0.07,0.5,0.21,0.57,0.45c0.07,0.24,0.11,0.45,0.38,0.25c0.12,0.7,0.42,1.73-0.37,2.32l-0.84-0.34
						c0.23,0.13,0.77-0.19,0.64-0.55c0.19,0.57-1.72,0.44-0.97,1.41l0.85-0.16c0.01,0.74,0.31,2.05-0.48,2.46
						c0.92,0.27,0.05-0.19,1.23-0.01c-1.3-0.34,1.31-1.77-0.27-1.84c1.33,0.15,1.03-0.56,2.29-0.84c-0.27-0.11-0.63,0-0.16-0.6
						c-0.06-0.07-0.12-0.19-0.15-0.26c0.02-0.02,0.03-0.02,0.04-0.03l-0.05,0.02c-0.02-0.05-0.03-0.05-0.02,0.01
						c-0.19,0.1-0.4,0.15-0.56,0.13c-0.43-0.63,0.1-1.58-0.13-2.08c0.27-0.34,0.25,0.28,0.62,0.18l-0.3-0.71
						c0.63,0.18,1.4-0.78,1.42,0.34c0.11-0.3,0.23-0.6,0.33-0.91c0.47-0.47,0.77-1.26,0.59-1.79c0.25-0.45-0.62-1.24-0.12-0.79
						c-0.11-0.53-0.22-1.04-0.34-1.54l0.16-0.02c0.05-0.75-0.35-1.5-0.56-2.24c-0.26-0.74-0.48-1.46-0.14-2.46
						c-0.33-0.41-0.7-0.79-0.84-1.61l0.45-0.38c-0.42-0.48-0.41-1.93-1.05-1.88c0.49-0.71,0.09-1.37-0.45-2
						c-0.53-0.65-1.27-1.11-1.53-1.59l-0.57,0.46c-0.22-0.28-0.49-0.51-0.8-0.73c-0.33-0.19-0.69-0.36-1.11-0.54l-0.4,0.51
						c-0.45-0.04-0.7-0.45-0.98-0.91c-0.29-0.44-0.6-0.97-1.08-1.29c0.21-0.15,0.4,0.08,0.47,0.32c-0.1-1-0.86-1.25-1.62-1.34
						c-0.77-0.11-1.5-0.18-1.76-0.92c-0.38,0.06-0.53-0.11-0.64-0.35c0.03,0.01,0.05,0.01,0.08,0.01c-0.02-0.02-0.06-0.04-0.11-0.07
						c-0.06-0.16-0.12-0.34-0.21-0.5c0.04,0.2,0.08,0.37,0.15,0.47c-0.21-0.1-0.56-0.19-0.94-0.21l0.18-0.69
						c-0.03-0.01-0.05-0.02-0.08-0.02c-0.19-0.39-0.39,0.17-0.46,0.72c-0.2,0.02-0.4,0.08-0.59,0.18c0.23-1.12-0.96-0.02-0.81-1.26
						c-0.44,0.43-1.74-0.29-2.35,0.82c0.05-0.15-0.02-0.26,0.15-0.21c-0.29-0.26-0.59-0.51-1.02-0.3l0.15-0.88l-1.14,0.85
						c-0.29-0.65-0.4-1.01,0.28-1.51c-1.45,0.66-1.05,0.1-2.28,0.82l0.2-0.54c-0.35-0.08-1.08,0.5-1.17,0.01
						c-0.25-0.61-1.21-0.87-2.32-1.14c-0.28-0.05-0.57-0.11-0.86-0.17l-0.44-0.1c-0.12-0.03-0.17-0.05-0.25-0.08
						c-0.3-0.11-0.55-0.3-0.65-0.55c-0.32,0.79-0.36,0.61-0.39,0.37c-0.03-0.23,0.02-0.51-0.45,0.09c0.2-0.37,0.26-0.59,0.64-0.89
						c-0.34,0.16-0.39,0-0.45-0.08c-0.07-0.08-0.17-0.06-0.92,0.42c0.39-0.35,0.72-0.51,0.93-0.72c-0.11,0.07-0.49,0.3-0.26,0.09
						c0.24-0.21,0.43-0.29,0.66-0.44c-0.3,0.05-1.94,1.12-3.49,2.12c0.36-0.49,0.18-0.43-1.23,0.22c0.42-0.33,0.88-0.68,1.45-0.78
						c-0.19-0.06-0.23-0.46-1.99,0.33c0.37-0.2-0.18-0.05-0.46,0.04c-0.42-0.04-0.27-0.11-0.97,0.01l-0.2,0.12
						c-2.73,1-1.06,0.26-1.81,0.41l0.29-0.1c0.38-0.26,0.27-0.25,0.02-0.19c-0.13,0.03-0.24,0.06-0.38,0.09
						c-0.05,0.01-0.1,0.02-0.13,0.02c0-0.01-0.1,0.01,0.06-0.05c0.24-0.1,0.62-0.26,1.19-0.5l-1.86,0.62
						c-1.92,0.62-1.08,0.26,0.02-0.17c1.12-0.45,2.45-0.92,2.01-0.9l-1.1,0.39c-0.45,0.07,0.95-0.42,2.42-0.89
						c1.33-0.4,2.71-0.82,3.31-1c0.3-0.09,0.39-0.07,0.56-0.1c2.14-0.66-1.88,0.45-1.96,0.28c1.02-0.25,2.43-0.5,2.75-0.64
						c0.42-0.1-0.27-0.01-0.7-0.04c-0.45-0.01-0.64-0.18,0.24-0.34c-0.65,0.08-1.35,0.21-1.62,0.09c0.04-0.12,0.78-0.3,1.25-0.42
						c0.48-0.13,0.7-0.21,0.06-0.41c0.16-0.01,0.3,0,0.42,0.01c-0.21-0.21,0-0.67-0.5-1.08c1.32,0.37,1.24,0.05,1.3-0.44
						c0.02-0.24,0.01-0.47,0.24-0.69c0.18-0.17,0.43-0.16,0.83,0.23c0.32-0.4,0.66-0.79,0.97-1.2l0.14,0.18
						c0.77-0.64,0.6-1.25,0.43-1.85c0.26-0.07,0.31,0.19,0.38,0.28c1.28-0.79,1.29-0.99,1.2-2.59l0.64,0.35
						c-0.14-0.51,2.18-0.95,2.32-2.61c0.06,0.06,0.15,0.16,0.17,0.31c0.11-0.9,1.09-1.38,1.76-1.94c0.68-0.55,1.12-1.13,0.17-2.06
						l-0.02-1.23c-0.85,1.05-0.87-0.75-1.52-0.5c0.13-0.52,1.35-0.76,1.15-0.14l-0.16,0.02c1.05,0.89,1.25-1.19,2.03-0.73
						c1.23-2.35,2.98-4.45,3.92-6.85l-1.09-0.09l0.35-0.8c0.31-0.14,0.88-0.03,0.63,0.56c0.68-0.12-0.11-1.17-0.33-1.25
						c0.78-1.05,1.02,0.85,1.15,0.49c0.04-0.17,0.06-0.35,0.09-0.52l-0.15,0.08c-0.29-0.54-0.71-0.71-0.45-1.42
						c0.34-0.4,0.69-0.06,0.79-0.23c0.07,0.02,0.12-0.03,0.11-0.27c0.15-0.35,0.24-0.72,0.37-1.08l-0.91,0.24
						c-0.28-0.58,0.28-1.01-0.75-0.73c1.63-0.38,1.35-3.95,1.78-4.35c-0.54-0.77-0.41-1.42-0.33-2.27c-0.18,0.2-1.12,0.27-0.98-0.43
						c1.9,0.34,0.92-1.29,2.25-1.92c-0.9,0.56-0.3-2.13-1.58-1.21c0.13-0.62,0.73-0.08,1.15-0.59c-0.46-0.72-0.41-1.53-0.35-2.43
						c0-0.88,0.12-1.86-0.26-2.74c-0.25,0.04-0.55,0.42-1.02,0.14c0.32-0.41,0.64-0.84,0.96-1.28c-0.23-0.33-1.47,0.1-0.85-0.8
						c-0.17,0.16-0.43,0.39-0.59,0.18c-0.01-1.89-0.98-3.56-2-5.08c-0.51-0.77-0.98-1.56-1.42-2.37c-0.21-0.42-0.39-0.85-0.52-1.33
						c-0.15-0.47-0.28-0.95-0.35-1.5c-0.06,0.7-0.31,0.47-0.57,0.19c0.07,0.26-0.48,0.4-0.72,0.65c-0.08-0.58-0.15-1.2-0.27-1.78
						c-0.89,0.45-1.19-1.13-1.94-0.59l0.45,0.22c-1.19,0.32-1.11,2.28-2.19,3.15c0.67-0.19,0.64,0.42,0.63,1.03
						c0,0.61,0.06,1.18,1.08,1.03c-0.08,0.35-0.47,0.13-0.65,0.42c0.63-0.18,0.92,0.01,1.03,0.64l-0.16,0.03
						c1.05,1.22,0.92,2.14,1.38,3.83l0.55-0.42c0.08,0.39-0.08,0.55-0.16,0.78c1.12-0.05-0.4-0.99,0.79-1.14
						c-0.51,0.55-0.23,1.15,0.02,1.75c0.23,0.61,0.38,1.23-0.3,1.65c0.19,0.53,0.68-0.42,0.88,0.12l-0.35,0.28l0.57-0.04
						c0.03,0.4-0.44,0.74-0.78,0.85c0.02-0.1-0.16-0.22-0.22-0.3c-0.36,0.6,0.52,1.24,0.41,1.45l0.11-0.59
						c0.43,0.68,0.52,1.56,0.71,2.4c0.13,0.85,0.32,1.68,0.79,2.43l0.32-0.14c0.62,1.18-0.28,0.97-0.04,2.28l-0.07-0.05
						c0.31,0.27,0.46,0.63,0.41,1c-0.36-0.35-0.75,0.58-1.15,0.13c0.56,1.33,0.45,0.66,1.56,1.65l-0.55,0.14
						c0.44,0.35,0.71,0.41,0.75,1.12c-0.36-0.62-0.88,0.31-1.37-0.39c-1.39,1.16,0.82,2.27-1.02,2.54c1.3,0.96,1.08-1.01,1.3-0.59
						c0.54-0.21,0.98,0.76,0.72,1.17c-0.16,0.45-1.99,0.33-2.28,1.4c0.04-0.1-0.07-0.14-0.03-0.25c-0.48,0.29,0.25,0.93-0.48,1.25
						c0.78,0.55-0.24,0.62,0.8,1.06c0.04-0.36,0.04-0.72,0.06-1.08c0.13,0.65,1.2,1.62,0.25,2.35c-0.19-0.15-0.37-0.53-0.47-0.78
						c-0.41,0.16,0.02,0.6-0.4,0.76c-1.05-0.47,0.21-1.28-0.43-2.15c-0.53,0.13,0.39,1.38-0.67,0.68c1.32,0.95-0.53,0.96,0.3,2.1
						l-0.62-0.3c0.05,0.15,0.26,0.5,0.16,0.7l-0.67-0.7c0.46,0.85-1.05,0.83-0.9,1.52c0.45-1.13,0.86,0.08,1.52-0.21
						c0.24,1.8-2,0.08-2.4,1.74c0.01-0.25,0.74-0.6,0.87-0.14c-0.27,0.23-0.68,0.51-1.09,0.52c-0.4,1.05,0.71,0.17,0.86,0.78
						c-0.92-0.04,0.04,0.65,0.03,1.23l-0.61-0.33c-1,0.93,1.11,1.01,0.05,1.78l-0.58-0.91l-0.1,0.65l-0.62-0.5
						c0.17,0.86-0.07,0.97-0.58,1.41c0.5,0.13,1.03,0.73,0.72,1.24c-0.56,0.11-0.44-0.54-0.8,0.21c-0.26-0.39-0.61-0.85,0.12-0.81
						c-0.17-0.15-0.27-0.39-0.44-0.53c-0.63,0.1-0.66,0.83-0.82,1.08c0.08-0.08,0.19-0.17,0.31-0.18c0.05,0.5,0.12,1.02,0.15,1.53
						c-0.32,0.01-0.41-0.23-0.5-0.47c-0.08,0.24,0.09,0.56-0.07,0.88c-0.41-0.4-0.9-0.72-0.84-1.27l-0.13,1.27
						c-0.24-0.08-0.88,0.08-0.96-0.17c-0.62,0.3-0.04,1.86-0.88,2.26c0.06,0.1,0.09,0.24,0.04,0.42c-0.6,0.52-1.56,0.61-1.57,1.81
						l-1.11-0.28c-0.31,0.69,1.43,0.31,0.91,1.47c-0.33,0.86-0.85-0.34-1.26-0.31c0.11,0.66,0.33,1.91-0.8,1.91
						C266.99,265.91,267.24,265.87,267.35,265.64z M255.38,275.78c-0.07-0.13-0.44-0.42,0.72-0.7
						C257.52,275.06,256.46,275.33,255.38,275.78z M264.54,279.15c-0.52,0.24-0.69,0.13-0.6-0.14
						C264.27,278.94,264.49,278.97,264.54,279.15z M298.43,299.8c-0.01-0.01-0.02-0.02-0.03-0.03
						C298.76,299.3,298.62,299.46,298.43,299.8z M297.89,300.77c0.06,0.13,0.15,0.15,0.26,0.13c-0.15-0.12-0.07-0.34,0.03-0.61
						C297.98,300.33,297.85,300.44,297.89,300.77z M286.03,246.35l-0.22,0.12C285.73,246.04,285.87,246.19,286.03,246.35z"/>
					<path d="M260.41,280.23c0.13-0.13,0.36-0.27,0.59-0.41C260.67,279.95,260.39,280.1,260.41,280.23z"/>
					<path d="M270.71,261.22c0.01,0,0.01-0.01,0.02-0.02c-0.02-0.04-0.05-0.07-0.08-0.1L270.71,261.22z"/>
					<path d="M289.59,289.6c-0.02-0.18,0.01-0.32,0.07-0.45C289.53,289.25,289.47,289.4,289.59,289.6z"/>
					<path d="M296.45,306.36l0.24-0.66c-0.16,0.29-0.35,0.3-0.54,0.38C296.29,306.15,296.56,306.18,296.45,306.36z"/>
					<path d="M289.76,307.38c0,0.12-0.12,0.12-0.12,0.24l0.23,0.23C290.11,307.6,290.11,307.25,289.76,307.38z"/>
					<path d="M294.23,305.51c-0.51-0.32-0.53,0.13-0.73,0.5c0.01-0.02,0.03-0.04,0.05-0.05C294.1,306.57,294.2,306.05,294.23,305.51
						z"/>
					<path d="M293.45,306.09c-0.06,0.11-0.14,0.22-0.24,0.3C293.43,306.64,293.37,306.31,293.45,306.09z"/>
					<path d="M297.81,302.18c-0.22,0.16,0.65,0.41,0.38,0.45C298.8,303.14,297.87,300.84,297.81,302.18z"/>
					<polygon points="292.51,304.61 293.16,304.94 292.82,304.41 					"/>
					<path d="M294.57,302.3l-0.47,0.47c0.11,0.05,0.14,0.16,0.14,0.27C294.45,302.7,294.77,302.38,294.57,302.3z"/>
					<path d="M294.25,303.03c-0.11,0.17-0.17,0.36-0.14,0.51C294.17,303.45,294.24,303.22,294.25,303.03z"/>
					<polygon points="292.81,303.81 293.03,303.74 293.32,303.42 					"/>
					<path d="M296.03,295.67l-0.28-0.67c-0.25-0.03-0.38,0.17-0.26,0.41C295.68,295.55,295.8,295.8,296.03,295.67z"/>
					<path d="M294.07,297.62c0.15-0.15,0.32-0.15,0.56-0.22l-0.89-0.08L294.07,297.62z"/>
					<path d="M293.86,295.92c-0.26-0.05-0.8-0.72-0.67-0.05C293.44,295.9,293.72,296.46,293.86,295.92z"/>
					<polygon points="290.77,287.25 290.89,287.37 291.94,286.34 					"/>
					<path d="M282.16,285.32c0.45,0.64,0.56-0.72,0.92-0.04c0.31-0.23-0.29-0.56,0-0.75C282.53,284.66,282.43,284.37,282.16,285.32z
						"/>
					<path d="M283.08,284.54c0.09-0.02,0.19-0.05,0.3-0.09C283.22,284.47,283.14,284.5,283.08,284.54z"/>
					<polygon points="279.23,214.49 279.06,213.87 278.96,214.48 					"/>
					<path d="M277.72,214.5l0.56-0.76l-0.82,0.37C277.58,214.17,277.8,214.28,277.72,214.5z"/>
					<path d="M247.81,278.54l0.55-0.09c0.84-0.26,1.13-0.43,1.71-0.77L247.81,278.54z"/>
					<path d="M262.17,269.5l-0.21,0.14c0.44,0,0.87,0.01,1.29,0.03L262.17,269.5z"/>
					<path d="M267.13,263.21c-0.17,0.14-0.2,0.45-0.37,0.59C266.96,263.34,267.96,263.87,267.13,263.21z"/>
				</g>
			</g>
		</g>
	</g>
</g>
<g>
	<g>
		<g>
			<g>
				<g>
					<path d="M180.49,215.67c-0.13,0.07,0.39,0.39,0.46,0.47C180.98,215.9,180.36,215.58,180.49,215.67z"/>
					<polygon points="180.98,213.06 181.12,213.26 180.96,212.58 					"/>
					<path d="M182.7,211.55c-0.83-0.67-0.53,0.67-1.08,0.65l-0.21-0.13l0.42,0.74C182.1,212.4,182.24,211.55,182.7,211.55z"/>
					<path d="M184.98,212.61c-0.29-0.28,0-0.43-0.29,0.05c0.05,0.02,0.07,0.04,0.1,0.05C184.82,212.69,184.87,212.65,184.98,212.61z
						"/>
					<path d="M184.79,212.72C184.63,212.88,185.1,212.9,184.79,212.72L184.79,212.72z"/>
					<path d="M185.52,211.93l-0.05,0.47c0.19,0.16,0.43,0.05,0.45,0.25C186.06,212.32,185.88,212.15,185.52,211.93z"/>
					<path d="M185.34,211.14l-0.05,0.22C185.37,211.43,185.42,211.43,185.34,211.14z"/>
					<path d="M185.2,211.82l0.1-0.46c-0.13-0.11-0.32-0.39-0.06,0.18C185.08,211.28,185.19,211.56,185.2,211.82z"/>
					<path d="M184.95,211.8c-0.27-0.09-0.54-0.07-0.48-0.54C184.05,211.71,184.55,212.24,184.95,211.8z"/>
					<path d="M182.13,210.65l-0.39-0.08l0.05,0.41C181.77,210.76,182.35,210.89,182.13,210.65z"/>
					<path d="M187.4,211.38c-0.09-0.2-0.38-0.45-0.55-0.68l-0.07,0.33C186.97,211.1,187.23,211.11,187.4,211.38z"/>
					<path d="M186.86,210.7l0.11-0.5C186.68,210.32,186.72,210.5,186.86,210.7z"/>
					<path d="M184.77,210.16c-0.02,0.32-0.03,0.66-0.04,0.98c0.04-0.35,0.07-0.71,0.13-1.05L184.77,210.16z"/>
					<polygon points="188.55,210.78 188.61,211.32 188.56,210.48 					"/>
					<path d="M189.28,210.3c0.06,0.44,0.49,0.54,0.47,0.84c0.17-0.17,0.2-0.58,0.22-0.95C189.87,210.45,189.66,210.48,189.28,210.3z
						"/>
					<path d="M190.04,209.64c-0.05,0.13-0.06,0.34-0.08,0.56C190.02,210.07,190.05,209.9,190.04,209.64z"/>
					<path d="M187.54,210.01c0.09,0.1,0.3,0.38,0.54,0.42l-0.41-0.48C187.63,209.96,187.59,209.98,187.54,210.01z"/>
					<path d="M187.65,209.93l0.01,0.01c0.14-0.05,0.24-0.09,0.28-0.11C187.91,209.85,187.82,209.88,187.65,209.93z"/>
					<path d="M187.51,210.02l0.03-0.01C187.5,209.96,187.49,209.94,187.51,210.02z"/>
					<path d="M185.86,210.13c-0.01-0.41,0.19-0.95-0.45-1.18C185.49,209.4,185.85,209.52,185.86,210.13z"/>
					<path d="M186.99,209.43l-0.4,0.07c0.09,0.14,0.26,0.31,0.26,0.51L186.99,209.43z"/>
					<polygon points="187.06,209.17 186.99,209.43 187.14,209.41 					"/>
					<path d="M189.22,209.4c0.03-0.31,0.18-0.41,0.35-0.53c-0.25-0.02-0.48,0.02-0.67,0.11
						C188.95,209.16,189.02,209.51,189.22,209.4z"/>
					<path d="M188.43,209.6l0.02-0.05C188.4,209.52,188.38,209.51,188.43,209.6z"/>
					<path d="M191.39,208.05c-0.02-0.03-0.05-0.06-0.07-0.09l0.03,0.1L191.39,208.05z"/>
					<path d="M188.81,208.89c-0.2-0.03-0.22,0.15-0.21,0.36c0.08-0.11,0.17-0.21,0.3-0.27
						C188.86,208.89,188.84,208.84,188.81,208.89z"/>
					<path d="M190.41,209.14c-0.13-0.08-0.26-0.14-0.39-0.19C190.18,209.1,190.45,209.3,190.41,209.14z"/>
					<path d="M188.57,209.68c0,0.01,0,0.03-0.01,0.04C188.67,209.81,188.64,209.76,188.57,209.68z"/>
					<path d="M188.57,209.68c0.03-0.12,0.02-0.28,0.02-0.43c-0.07,0.09-0.12,0.19-0.14,0.31
						C188.48,209.58,188.53,209.63,188.57,209.68z"/>
					<path d="M190.46,204.16c0.18,0.54-0.04,1.19-0.64,0.79c-0.19,0.55,0.8,2.17,1.49,3c-0.08-0.23-0.18-0.45,0.05-0.91
						c-0.24-0.24-1.07-0.33-0.97-0.94c0.36-0.48,0.47,0.02,0.82,0.2c-0.47-0.58,0.23-1.2-0.26-2.13l-0.3,0.52
						C190.58,204.55,190.64,204.25,190.46,204.16z"/>
					<path d="M190.63,208.19l-0.11,0.13c0.2,0.02,0.41,0.18,0.8,0.5c0.12-0.36,0.09-0.57,0.03-0.76l-0.73,0.23L190.63,208.19z"/>
					<path d="M189.88,208.61c-0.15-0.62,0.08-1.02-0.41-1.53c-0.41,0.24-0.08,0.61-0.21,0.97c0.61-0.46-0.04,0.4,0.59,0.49
						c-0.09,0.16-0.19,0.24-0.29,0.32c0.15,0.01,0.3,0.04,0.46,0.09l-0.03-0.03l0,0l0-0.01c-0.06-0.06-0.09-0.09-0.04-0.07
						c0-0.01,0.01-0.02,0.01-0.02C189.92,208.76,189.9,208.68,189.88,208.61c0.25,0.03,0.1,0.14,0.07,0.23l0.03,0.09l0.01,0.01
						c0.17-0.21,0.34-0.41,0.53-0.61C190.34,208.3,190.16,208.39,189.88,208.61z"/>
					<path d="M185.08,207.6c0.05,0.04,0.07,0.07,0.09,0.11C185.18,207.62,185.17,207.57,185.08,207.6z"/>
					<path d="M185.55,207.77c-0.01,0.1,0.08,0.34-0.11,0.38c-0.23-0.08-0.15-0.26-0.26-0.43c-0.01,0.2-0.11,0.57,0.34,0.66l0-0.1
						c0.38,0.03,1.1,0.51,1.09,0.61C186.26,208.45,186,208.14,185.55,207.77z"/>
					<path d="M187.69,207.98l0.42-0.56l-0.53-0.33l0.16,0.28C187.37,207.42,187.62,207.74,187.69,207.98z"/>
					<polygon points="191.57,208.3 191.75,208.94 191.72,207.95 					"/>
					<polygon points="192.28,207.93 192.46,208.47 192.53,208.08 					"/>
					<path d="M238.82,196.18l0.22-0.14C238.93,196.08,238.87,196.13,238.82,196.18z"/>
					<path d="M237.39,195.99l-0.06,0.28C237.4,196.12,237.44,196.01,237.39,195.99z"/>
					<path d="M211.69,203.21c0.33,0.49,0.73,1.28,0.62,0.65l-0.15-0.61C211.98,203.38,211.83,203.33,211.69,203.21z"/>
					<path d="M225.6,198.68c-0.03-0.06-0.05-0.13-0.08-0.19c-0.07,0.21-0.13,0.41-0.19,0.6C225.41,198.97,225.5,198.83,225.6,198.68
						z"/>
					<path d="M225.81,196.1l0.38,0.41C226.1,196.37,225.98,196.23,225.81,196.1z"/>
					<path d="M246.75,196.73l0.35-0.58C246.74,196.08,246.84,196.43,246.75,196.73z"/>
					<path d="M200.09,205.18c0.29,0.18,0.49,0.23,0.65,0.22C200.38,205.12,200.03,204.66,200.09,205.18z"/>
					<path d="M237.52,202.7c0.13-0.1,0.19-0.22,0.2-0.36C237.6,202.44,237.52,202.55,237.52,202.7z"/>
					<path d="M201.39,205.24c-0.05-0.05-0.1-0.07-0.15-0.12c-0.14,0.14-0.29,0.27-0.5,0.28C201,205.61,201.27,205.71,201.39,205.24z
						"/>
					<path d="M273.49,209.01c0,0.04,0.01,0.06,0,0.1C273.55,209.06,273.53,209.03,273.49,209.01z"/>
					<path d="M273.44,219.2c-0.06-0.04-0.11-0.14-0.16-0.23C273.27,219.03,273.3,219.11,273.44,219.2z"/>
					<path d="M195.39,207.08C195.24,207.17,195.39,207.15,195.39,207.08L195.39,207.08z"/>
					<path d="M193.79,205.01c0.01-0.08,0.01-0.17-0.03-0.31C193.79,204.85,193.8,204.95,193.79,205.01z"/>
					<path d="M202.25,201.06l0.02,0C202.19,200.95,202.2,200.97,202.25,201.06z"/>
					<path d="M195.06,206.89c0.09,0.05,0.18,0.09,0.27,0.11C195.28,206.96,195.19,206.93,195.06,206.89z"/>
					<path d="M195.19,207.16c-0.06,0-0.11-0.01-0.16-0.01C195.04,207.26,195.08,207.31,195.19,207.16z"/>
					<path d="M195.61,206.97c-0.09,0.04-0.18,0.04-0.28,0.03c0.05,0.03,0.07,0.06,0.07,0.08
						C195.44,207.06,195.5,207.02,195.61,206.97z"/>
					<path d="M259.02,202.42c0,0.02,0.01,0.04,0.02,0.07C259.3,202.32,259.21,202.32,259.02,202.42z"/>
					<path d="M215.73,196.3c-0.01,0.01-0.01,0.02-0.02,0.03l0.03,0.02L215.73,196.3z"/>
					<path d="M216.36,195.78c-0.23,0.8-0.39,0.71-0.62,0.56l0.36,1.78L216.36,195.78z"/>
					<path d="M242.27,196.45l-0.39-0.62c0.7-0.84,1.07-0.45,0.74-1.3c-0.35,1.93-1.88-0.06-2.2,1.87l-0.26-0.45
						c0.09,0.03,0.12-0.08,0.2-0.05c-0.49-1-0.63,1.35-1.36,0.98c-0.25-0.18-0.41-0.49-0.2-0.69l-0.65,0.41
						c-0.17-0.06-0.09-0.39,0.08-0.33l-0.93,0.06l0.01-0.06c-0.16,0.29-0.5,0.73-0.67,0.92c-0.2-0.3,0.14-0.19,0.1-0.44l-0.55,0.42
						c-0.16-0.53,0.31-0.97,0.65-0.86c-0.29-1.99-0.46,0.44-1.39-0.78l0.5-0.21c-0.21-1.13-0.63-0.76-1.12-1.5
						c0.11,0.37,0.95,1.83,0.36,2.27c-0.14-0.16-0.34-0.25-0.67,0.12c0.05-0.69-0.25-0.55-0.62-0.53l0.09-0.92
						c-0.42,0.24-0.42,0.71-0.68,1.11c-0.43-0.12-0.48-0.84-0.54-1.44c-0.7-0.19,0.42,1.17-0.43,1.29c-0.56-0.39-1-0.03-1.72,0.49
						c-0.39-0.34,0.1-0.56-0.04-0.83l-0.39,0.72c-0.09-0.02-0.05-0.25-0.03-0.36c-0.32,0.27-0.06,0.91-0.55,1.15
						c-0.16,1.01-0.93-1.51-1.55-0.38c-0.14-0.27,0.08-0.56,0.05-0.92c-0.83,0.73-0.71,0.54-1.39,1.54l-0.56-0.61
						c0.41,0.7-0.13,1.51-0.59,2.18c0.14,0.33,0.27,0.63,0.35,0.77l-0.72,0.49c-0.09-0.15-0.01-0.47,0.1-0.85
						c-0.05,0.08-0.1,0.15-0.13,0.22c-0.26-0.34-0.13-0.87,0.06-1.39c0.09,0.18,0.17,0.38,0.26,0.57c0.18-0.56,0.36-1.18,0.32-1.72
						c-0.05,0.11-0.14,0.2-0.24,0.25c0.05-0.15,0.08-0.29,0.06-0.38c-0.02-0.1-0.1,0.11-0.22,0.34l-0.17-1.03l-0.04,0.41l-0.98-0.64
						c-0.69,1.03-1.27,2.57-2.33,3.02c0.25-0.76,0.03-1.23,0.02-2.12c0.32,0.94,0.84-0.42,1.42-0.24c-0.3-0.09-0.24-0.52-0.17-0.67
						l-1,0.88c0.01-0.73-0.23-0.54-0.51-0.84c0.24,1.43-0.73,0.99-1.13,1.44c-0.04-0.48,0.04-0.98,0.55-0.88
						c-0.6-1.06-0.66,1.72-1.24,0.82c0.12-0.02,0.19,0.06,0.23-0.19c-0.27,0.44-0.99,0.13-0.84-0.3l0.12-0.02
						c-0.83-0.13-2.5,0.13-2.53,1.37c-0.02-0.16,0-1.48,0.04-1.73c-0.39,1.41-0.77,2.81-1.13,4.21c0.04-1.06-0.65-3.52-0.02-4.16
						c-0.21-0.14-0.47-0.29-0.85,0.12c0.15,0.14,0.46,1.49,0.29,1.6c-0.6-1.12-0.4-0.59-1.1-1.53c0.22,0.21,0.15,1.87-0.16,1.84
						c0.03-0.25-0.18-1.62-0.08-1.8l-0.62,1.69c0.16-0.31-0.1-1.37-0.33-1.8c0.11,0.31-0.68,0.04-0.88,0.23l0.37,0.34
						c-0.91-0.15-0.61,2.35-1.48,2.38c0.06-0.35,0.01-2.08-0.46-2.22c-0.11,0.85-0.39,4.06-1.03,4.8l-0.21-0.45l-0.49,0.62
						c0.16-1.28,0.81-4.04,1.26-5.12c-0.38-0.33-0.17-0.54-0.66-0.44c-0.24-0.42,0.18-0.7,0.33-0.75l-1.21-0.12
						c0.19,0.95-0.75,1.09-0.58,1.88l1.11-1.18c0.18,0.95-0.34,2.83-1.16,2.77c-0.26-0.35-0.11-1.73-0.17-2.04
						c-0.06,0.34-0.68,0.75-0.79,0.53l0.26-0.57c-0.52-0.28-0.53,1.39-1.23,0.57c-0.2-0.03-0.78-1.14-0.71-0.56
						c0.5,1.03,1.14,4.39,1.09,5.24c-0.07-0.07-1.13-0.86-1.44-1.36c-0.46-0.79,0.08-2.11-0.32-2.8c0.04,0.26-0.07,0.61-0.12,0.73
						c-0.24-0.19-0.07-0.82-0.48-0.62c0.11,0.98-0.88,0.08-0.04,0.85c-0.36,0.35-0.48-0.11-0.96,0.03c0.28,0.59,0,2.2-0.34,2.56
						c-0.03-0.25-0.19-0.55-0.26-0.68c-0.85,0.09-1.39-0.23-2.18-0.06c-0.13-0.21-0.57-0.4-0.51-0.85c-0.07,0.2-0.09,0.55-0.33,0.63
						c-0.67-0.7,0.51-0.26-0.1-1.16c0.11,0.56-0.43,0.92-0.69,1.35c0.33,0.83,0.83-0.04,1.09-0.47c0.29,1.18,0.01,2.56-0.63,3.3
						c-0.54,0.46-0.47-0.68-0.54-0.49c-1.23,0.13-0.41,2.31-1.61,1.76c-0.6-0.62-0.47-1.47-0.71-1.98c0.43-0.44,0.92,0.23,1.26,0.11
						l-0.53-0.23c0.09-0.3,0.38-0.58,0.63-0.41c-0.52-0.58-2.04,0.45-3.14,0.15c-0.08,0.3-0.27,0.65-0.04,0.9l0.25-0.2
						c0.46,0.51-0.26,1,0.19,1.15c-0.24,0.54-0.43,1.33-1.06,1.19l-0.4-0.79c0.1,0.24,0.52,0.37,0.58,0.06
						c-0.08,0.45-1.21-0.83-1.05,0.34l0.58,0.44c-0.22,0.55-0.34,1.59-0.87,1.51c0.52,0.73,0.07-0.13,0.75,0.69
						c-0.73-1.09,1.16-0.37,0.25-1.46c0.73,0.99,0.74,0.26,1.5,1.07c-0.11-0.27-0.33-0.48,0.09-0.47c-0.01-0.09-0.01-0.2,0-0.27
						c0.01,0.01,0.02,0.01,0.03,0.01l-0.03-0.03c0-0.05,0-0.06-0.01-0.01c-0.13-0.09-0.25-0.21-0.34-0.35
						c-0.03-0.7,0.6-0.88,0.7-1.28c0.27,0.05,0.01,0.35,0.23,0.6l0.15-0.6c0.23,0.61,0.93,0.84,0.51,1.36l0.49-0.12
						c0.39,0.26,0.82,0.28,0.98-0.05c0.26,0.07,0.38-0.85,0.32-0.31l0.66-0.6l0.05,0.15c0.77-0.14,1.31-1.45,2.47-0.54
						c0.22-0.22,0.45-0.47,0.92-0.4l0.21,0.53c0.29-0.27,1.11,0.33,1.14-0.27c0.67,1.39,1.68-0.01,2.32,0.15l-0.11-0.72
						c0.41-0.04,0.77-0.31,1.23-0.68l-0.14-0.63c0.36-0.59,1.21,0.25,1.9,0.09c-0.01,0.25-0.2,0.21-0.35,0.08
						c1.05,1.32,1.62-1.31,2.53-0.35c0.16-0.26,0.31-0.2,0.46-0.05c-0.02,0-0.03,0.02-0.04,0.04c0.02,0.01,0.05,0,0.08,0
						c0.1,0.1,0.2,0.22,0.31,0.31c-0.1-0.15-0.19-0.26-0.26-0.32c0.14-0.03,0.36-0.14,0.56-0.33l0.17,0.68
						c0.02-0.01,0.03-0.01,0.05-0.03c0.24,0.23,0.13-0.34-0.04-0.85c0.1-0.13,0.18-0.27,0.24-0.45c0.3,1.09,0.54-0.44,0.9,0.72
						c0.09-0.6,1.06-0.55,1.06-1.78c0.02,0.16,0.09,0.23-0.02,0.25c0.26,0.12,0.52,0.23,0.71-0.13l0.18,0.87l0.44-1.23
						c0.37,0.51,0.53,0.81,0.26,1.51c0.7-1.1,0.6-0.44,1.2-1.52l0.01,0.57c0.24-0.04,0.57-0.83,0.75-0.37c0.6,1.05,2.66,0,4.07,0.97
						c-0.31-1.67,0.65,0.74,0.68-0.56c0.09,0.39,0.28,0.61,0.07,0.96c0.69-0.4,1.05,0.6,1.52-0.49c0.08,0.4-0.14,0.58-0.07,0.82
						c0.05-0.09,0.22-0.35,0.29-0.11c0.07,0.24-0.1,0.33-0.21,0.51c0.7-0.07,0.77-1.29,0.83-2.44c0.37,0.54,0.54,0.46,0.81-0.29
						c0.13,0.38,0.33,0.77-0.11,0.9c0.25,0.06,1.52,0.57,1.56-0.35c0.07,0.23,0.35,0.07,0.42-0.03c0.56,0.07,0.61,0.16,1.16,0.09
						l-0.15-0.15c0.25-1.1,0.47-0.23,0.92-0.35l-0.02,0.11c0.99,0.85,0.46-0.36,1.43,0.6l-0.02-0.69c0.17-1.48,0.85,0.92,1.47,0.39
						l-0.19-0.41c0.36-0.49,0.76,2.07,1.06,2.28c0.06,0.13-0.12,0.2-0.23,0.29c0.76,0.93,0.17-0.9,0.81-1.06
						c0.08,0.5-0.24,1.22,0.16,1.35c0.17,0.41,1.34-1.49,1.82-0.49c-0.09-0.39-0.18-0.77,0.14-1.03c0.46-0.09,1.04,1.53,1.57,0.4
						c0.04,0.11,0.05,0.21,0.05,0.3c0.37-0.26,1.15-0.37,1.43-0.99c0,2.39,2.26-0.86,1.94,1.31l1.04,0.04l-0.06,0.22
						c0.63,0.25,0.95-0.24,1.27-0.72c0.13,0.17-0.02,0.36-0.05,0.47c0.88,0.61,0.98,0.53,1.99-0.4l-0.05,0.72
						c0.3-0.36,1.15,1.36,2.24,0.76c-0.03,0.08-0.08,0.21-0.17,0.29c1.24-0.59,1.99,2.5,3,0.07l0.85-0.44
						c-0.84-0.44,0.42-1.06,0.16-1.57c0.4-0.05,0.71,1.01,0.24,1.02l-0.03-0.14c-0.51,1.26,0.98,0.77,0.7,1.65
						c1.74,0.44,3.16,1.68,4.67,2.31l0.19-1.05l0.52,0.26c0.05,0.29-0.11,0.84-0.47,0.65c-0.01,0.63,0.82-0.21,0.92-0.42
						c0.59,0.69-0.74,1.03-0.52,1.14l0.34,0.05l-0.02-0.14c0.41-0.3,0.6-0.71,1.05-0.48c0.21,0.32-0.1,0.66-0.01,0.75
						c-0.03,0.07-0.01,0.12,0.16,0.1l0.62,0.37l0.07-0.88c0.46-0.25,0.61,0.31,0.68-0.68c-0.13,1.51,2.24,1.63,2.3,2.19
						c0.68-0.34,1.07-0.1,1.51,0.23c-0.03-0.22,0.35-1.07,0.72-0.73c-1.12,1.57,0.34,1.17-0.09,2.55c0.21-0.96,1.23,0.51,1.5-0.86
						c0.24,0.35-0.38,0.62-0.39,1.16c1.19-0.1,1.36,1.54,2.32,2.04c0.18-0.18,0.28-0.6,0.71-0.73c-0.12,0.45-0.24,0.89-0.39,1.33
						c0.23,0.05,1.13-0.94,0.82-0.03c0.11-0.19,0.26-0.49,0.43-0.44c0.38,1.19,1.27,1.81,2.05,2.6c0.76,0.78,1.37,1.79,0.8,3.21
						c0.31-0.46,0.43-0.33,0.56-0.15c0.04-0.17,0.56-0.28,0.85-0.45c-0.16,0.42-0.33,0.82-0.5,1.21c0.96-0.23,0.39,0.84,1.28,0.61
						l-0.25-0.21c1.15,0.02,2.04-1.38,3.33-1.87c-0.67-0.01-0.39-0.48-0.21-1.01c0.2-0.53,0.25-1.08-0.72-1.05
						c0.15-0.31,0.47-0.07,0.7-0.31c-0.63,0.09-0.84-0.09-0.88-0.65l0.16-0.03c-0.87-1.1-0.72-1.93-1.46-3.42l-0.45,0.53
						c-0.15-0.32-0.03-0.51-0.01-0.74c-1.03,0.38,0.57,0.76-0.53,1.23c0.79-1.27-1.53-1.73-0.64-3.05
						c-0.38-0.36-0.44,0.67-0.81,0.31l0.19-0.4l-0.47,0.31c-0.18-0.29,0.05-0.81,0.28-1.08c0.03,0.09,0.24,0.09,0.33,0.13
						c0.01-0.69-1.06-0.71-1.07-0.93l0.21,0.52c-1.32-0.62-2.37-2.09-3.96-2.11l-0.1,0.32c-1.15-0.05-0.48-0.73-1.56-1.08l0.07-0.04
						c-0.35,0.16-0.68,0.16-0.92-0.02c0.43-0.19-0.09-0.89,0.43-1.08c-1.26,0.02-0.72,0.16-1.9,0.89l0.11-0.55
						c-0.44,0.32-0.57,0.53-1.1,0.42c0.6-0.21,0.06-0.88,0.78-1.2c-0.51-1.57-2.02,0.34-1.77-1.44c-1.08,1.12,0.54,1.16,0.15,1.33
						c0.01,0.54-0.85,0.82-1.1,0.54c-0.3-0.17,0.22-1.97-0.64-2.31c0.08,0.04,0.13-0.06,0.21-0.02c-0.17-0.49-0.81,0.21-0.97-0.51
						c-0.55,0.74-0.49-0.25-0.96,0.79l0.86,0.06c-0.55,0.1-1.43,1.18-1.91,0.31c0.14-0.19,0.46-0.4,0.66-0.5
						c-0.09-0.4-0.48,0.06-0.58-0.35c0.46-1.05,1.03,0.12,1.81-0.5c-0.05-0.54-1.19,0.42-0.51-0.64c-0.9,1.33-0.78-0.5-1.77,0.41
						l0.27-0.63c-0.13,0.07-0.43,0.3-0.59,0.23l0.6-0.72c-0.72,0.54-0.7-0.94-1.29-0.71c0.97,0.3-0.05,0.85,0.19,1.46
						c-1.45,0.49-0.1-1.93-1.54-2.03c0.21-0.04,0.55,0.6,0.18,0.81c-0.21-0.21-0.47-0.56-0.52-0.95c-0.92-0.13-0.07,0.71-0.56,1
						c-0.06-0.89-0.53,0.19-0.98,0.34l0.19-0.67c-0.88-0.7-0.66,1.32-1.4,0.56l0.63-0.82l-0.53,0.11l0.3-0.74
						c-0.67,0.42-0.78,0.23-1.23-0.11c0,0.5-0.38,1.2-0.82,1.12c-0.2-0.48,0.33-0.6-0.32-0.66c0.24-0.39,0.53-0.88,0.65-0.19
						c0.08-0.21,0.25-0.39,0.33-0.6c-0.21-0.54-0.8-0.31-1.03-0.36c0.08,0.05,0.18,0.11,0.21,0.22l-1.14,0.72
						c-0.09-0.29,0.08-0.47,0.24-0.64c-0.2,0.03-0.4,0.31-0.69,0.31c0.19-0.53,0.3-1.11,0.76-1.28l-1.02,0.41
						c-0.01-0.25-0.31-0.76-0.15-0.94c-0.43-0.43-1.43,0.83-1.99,0.27c-0.05,0.1-0.14,0.19-0.3,0.24c-0.58-0.24-1.01-1.02-1.87-0.38
						l-0.24-1.07c-0.61,0.14,0.35,1.35-0.66,1.57c-0.72,0.21-0.11-0.89-0.3-1.21c-0.42,0.45-1.14,1.38-1.64,0.49
						C241.93,196.33,242.07,196.5,242.27,196.45z M235.22,196.1c0.15-0.13,0.46-0.56,0.52-0.14
						C235.52,196.73,235.44,196.34,235.22,196.1z M224.58,197.35c0.1-0.23,0.25-0.12,0.43,0.15
						C224.88,197.56,224.74,197.53,224.58,197.35z M197.01,205.97c0-0.01,0-0.02,0-0.04C197.36,206.11,197.23,206.04,197.01,205.97z
						 M196.36,205.85c-0.03,0.11,0.01,0.2,0.06,0.29c-0.01-0.18,0.11-0.23,0.27-0.23C196.59,205.75,196.48,205.65,196.36,205.85z
						 M259.05,207.47l-0.03-0.21C259.33,207.18,259.2,207.32,259.05,207.47z"/>
					<path d="M225.78,196.4c0.04,0.12,0.05,0.25,0.06,0.38C225.89,196.66,225.89,196.53,225.78,196.4z"/>
					<path d="M246.68,196.84c0.01,0.01,0.01,0.01,0.02,0.01c0.02-0.04,0.03-0.08,0.05-0.12L246.68,196.84z"/>
					<path d="M204.14,197.89c0.15,0.07,0.24,0.19,0.31,0.31C204.43,198.02,204.34,197.89,204.14,197.89z"/>
					<path d="M193.84,207.96l0.28-0.29c-0.15,0.09-0.27-0.03-0.39-0.1C193.8,207.71,193.95,207.91,193.84,207.96z"/>
					<path d="M189.19,205.21c-0.02,0.1-0.11,0.06-0.12,0.16l0.15,0.29C189.43,205.54,189.48,205.23,189.19,205.21z"/>
					<path d="M192.71,205.91c-0.23-0.54-0.39-0.27-0.6-0.07c0.01-0.01,0.03-0.02,0.04-0.02
						C192.38,206.62,192.54,206.26,192.71,205.91z"/>
					<path d="M192.07,205.89c-0.07,0.06-0.14,0.1-0.22,0.1C191.93,206.31,191.96,206.02,192.07,205.89z"/>
					<path d="M195.77,206.45c-0.16-0.1,0.16,0.73,0.02,0.53C195.89,207.73,196.29,205.86,195.77,206.45z"/>
					<polygon points="191.83,204.19 192.17,204.83 192.11,204.23 					"/>
					<path d="M194.04,203.96l-0.48-0.05c0.05,0.11,0.02,0.2-0.03,0.27C193.79,204.11,194.12,204.16,194.04,203.96z"/>
					<path d="M193.53,204.18c-0.14,0.03-0.26,0.09-0.29,0.23C193.31,204.38,193.46,204.3,193.53,204.18z"/>
					<polygon points="192.32,203.78 192.49,203.88 192.8,203.82 					"/>
					<path d="M198.56,202.73l0.41-0.32c-0.02-0.25-0.18-0.37-0.33-0.23C198.58,202.38,198.43,202.52,198.56,202.73z"/>
					<path d="M196.63,201.22c0.17,0.11,0.22,0.26,0.36,0.47l-0.23-0.86L196.63,201.22z"/>
					<path d="M197.95,200.64c-0.02-0.26,0.51-0.87-0.08-0.66C197.88,200.23,197.46,200.56,197.95,200.64z"/>
					<polygon points="205.33,200.16 205.21,200.19 205.49,201.63 					"/>
					<path d="M211.24,195.74c-0.63-0.28-0.03,0.91-0.61,0.55c-0.09,0.36,0.47,0.3,0.37,0.62
						C211.31,196.49,211.52,196.68,211.24,195.74z"/>
					<path d="M211,196.9c-0.05,0.06-0.1,0.14-0.15,0.24C210.94,197.04,210.98,196.96,211,196.9z"/>
					<polygon points="273.15,220.52 272.96,220.9 273.36,220.55 					"/>
					<path d="M274.37,220.7l-0.86,0.36l0.87-0.09C274.31,220.92,274.19,220.82,274.37,220.7z"/>
					<path d="M234.32,194.13l-0.05,0.22c0.04,0.25,0.13,0.27,0.3,0.33L234.32,194.13z"/>
					<polygon points="239.4,195.33 239.31,195.3 239.38,196.16 					"/>
					<path d="M243.86,194.87c-0.17-0.06-0.41,0.09-0.58,0.03C243.69,194.81,243.74,195.92,243.86,194.87z"/>
				</g>
			</g>
		</g>
	</g>
</g>
<g>
	<ellipse class="st3" cx="476.24" cy="333.68" rx="151.84" ry="132.54"/>
	<ellipse class="st4" cx="416.52" cy="411.23" rx="92.85" ry="54.25"/>
	<ellipse class="st5" cx="402.32" cy="363.54" rx="29.13" ry="19.66"/>
	<path class="st6" d="M392.86,293.63h22.58c0,21.57-10.19,39.32-22.58,39.32c-12.38,0-22.58-17.75-22.58-39.32
		s10.19-39.32,22.58-39.32c6.14,0,12.02,4.36,16.27,12.07L392.86,293.63z"/>
	<path class="st6" d="M498.82,293.63l16.4-27.5c-4.31-7.56-10.23-11.82-16.4-11.82c-12.58,0-22.94,17.75-22.94,39.32
		s10.36,39.32,22.94,39.32c12.58,0,22.94-17.75,22.94-39.32H498.82z"/>
	<g>
		<g>
			<path d="M383.96,363.36c11.81,3.69,24.69,4.08,36.73,1.34c1.77-0.4,1.02-3.11-0.75-2.71c-11.57,2.62-23.91,2.2-35.24-1.34
				C382.97,360.11,382.23,362.82,383.96,363.36L383.96,363.36z"/>
		</g>
	</g>
	<g>
		
			<ellipse transform="matrix(0.1705 -0.9854 0.9854 0.1705 284.0395 749.23)" class="st7" cx="587.01" cy="205.92" rx="39.42" ry="59.55"/>
		<path class="st8" d="M624.96,206.78c-3.64,3.4-8.95,4.27-13.93,4.47c-17.18,0.71-34.54-4.73-48.25-15.1"/>
	</g>
	<g>
		<g>
			
				<ellipse transform="matrix(0.944 -0.3301 0.3301 0.944 -48.6444 132.5396)" class="st7" cx="365.97" cy="209.51" rx="59.55" ry="39.42"/>
		</g>
		<path class="st8" d="M390.29,188.78c-1.03,4.88-4.88,8.63-8.84,11.65c-13.66,10.44-31,15.96-48.18,15.33"/>
	</g>
</g>
<path class="st9" d="M186.78,315.39l-3.92,28.28c-56.5-15.63-67.72,55.33-7.38,53.2c-2.99,16.92-7.28,38.87,15.55,42.93
	c0,0,79.28,11,79.28,11c11.65,1.62,22.41-6.52,24.03-18.17l13.93-100.38L186.78,315.39z M169.08,383.11
	c-39.36-5.36-16.96-37.22,11.85-25.55l-3.49,25.13C174.83,383.15,172.01,383.31,169.08,383.11z"/>
</svg>
